<svg viewBox="0 0 382 152" fill="none" xmlns="http://www.w3.org/2000/svg">
<g clip-path="url(#clip0_7551_5340)">
<mask id="mask0_7551_5340" style="mask-type:luminance" maskUnits="userSpaceOnUse" x="0" y="0" width="382" height="152">
<path d="M375.839 0H6.16129C2.7585 0 0 2.83553 0 6.33333V145.667C0 149.164 2.7585 152 6.16129 152H375.839C379.241 152 382 149.164 382 145.667V6.33333C382 2.83553 379.241 0 375.839 0Z" fill="white"/>
</mask>
<g mask="url(#mask0_7551_5340)">
<path d="M375.839 0H6.16129C2.7585 0 0 2.83553 0 6.33333V145.667C0 149.164 2.7585 152 6.16129 152H375.839C379.241 152 382 149.164 382 145.667V6.33333C382 2.83553 379.241 0 375.839 0Z" fill="#D8E6F1"/>
<path d="M38.7418 67.7349C36.4415 67.7349 34.7021 67.0699 33.5232 65.7399C32.3443 64.3804 31.7549 62.4445 31.7549 59.9323V58.1589H36.2403V60.2869C36.2403 62.2967 37.0598 63.3016 38.6987 63.3016C39.5037 63.3016 40.1075 63.0651 40.5101 62.5923C40.9414 62.0898 41.157 61.2918 41.157 60.1983C41.157 58.8978 40.8695 57.7599 40.2944 56.7846C39.7194 55.7797 38.6555 54.5827 37.1029 53.1936C35.1477 51.4203 33.7819 49.8243 33.0056 48.4056C32.2293 46.9574 31.8411 45.3318 31.8411 43.5289C31.8411 41.0758 32.4449 39.1843 33.6526 37.8543C34.8602 36.4947 36.6141 35.8149 38.9143 35.8149C41.1857 35.8149 42.8966 36.4947 44.0467 37.8543C45.2255 39.1843 45.8149 41.1054 45.8149 43.6176V44.9033H41.3295V43.3073C41.3295 42.2433 41.1283 41.4748 40.7257 41.0019C40.3232 40.4995 39.7338 40.2483 38.9574 40.2483C37.3761 40.2483 36.5853 41.2384 36.5853 43.2186C36.5853 44.3417 36.8728 45.3909 37.4479 46.3663C38.0517 47.3416 39.1299 48.5238 40.6826 49.9129C42.6665 51.6863 44.0323 53.2971 44.7799 54.7453C45.5274 56.1935 45.9012 57.8929 45.9012 59.8436C45.9012 62.3854 45.283 64.3361 44.0467 65.6956C42.839 67.0551 41.0708 67.7349 38.7418 67.7349ZM55.522 67.7349C53.2218 67.7349 51.4679 67.0699 50.2602 65.7399C49.0526 64.3804 48.4488 62.4445 48.4488 59.9323V36.2583H53.193V60.2869C53.193 61.3509 53.3943 62.1194 53.7968 62.5923C54.2281 63.0651 54.8319 63.3016 55.6082 63.3016C56.3846 63.3016 56.974 63.0651 57.3765 62.5923C57.8078 62.1194 58.0235 61.3509 58.0235 60.2869V36.2583H62.5951V59.9323C62.5951 62.4445 61.9913 64.3804 60.7837 65.7399C59.5761 67.0699 57.8222 67.7349 55.522 67.7349ZM65.9741 36.2583H72.961C75.3187 36.2583 77.0874 36.9085 78.2657 38.2089C79.4448 39.5094 80.034 41.4157 80.034 43.9279V46.9869C80.034 49.4991 79.4448 51.4055 78.2657 52.7059C77.0874 54.0064 75.3187 54.6566 72.961 54.6566H70.7183V67.2916H65.9741V36.2583ZM72.961 50.2233C73.7373 50.2233 74.3124 50.0016 74.6861 49.5583C75.0887 49.1149 75.2899 48.3613 75.2899 47.2973V43.6176C75.2899 42.5536 75.0887 41.7999 74.6861 41.3566C74.3124 40.9133 73.7373 40.6916 72.961 40.6916H70.7183V50.2233H72.961ZM82.6109 36.2583H89.5978C91.9553 36.2583 93.7236 36.9085 94.9027 38.2089C96.0811 39.5094 96.671 41.4157 96.671 43.9279V46.9869C96.671 49.4991 96.0811 51.4055 94.9027 52.7059C93.7236 54.0064 91.9553 54.6566 89.5978 54.6566H87.3551V67.2916H82.6109V36.2583ZM89.5978 50.2233C90.3742 50.2233 90.9487 50.0016 91.323 49.5583C91.725 49.1149 91.9268 48.3613 91.9268 47.2973V43.6176C91.9268 42.5536 91.725 41.7999 91.323 41.3566C90.9487 40.9133 90.3742 40.6916 89.5978 40.6916H87.3551V50.2233H89.5978ZM106.105 67.7349C103.776 67.7349 101.994 67.0551 100.757 65.6956C99.5206 64.3361 98.9022 62.4149 98.9022 59.9323V43.6176C98.9022 41.1349 99.5206 39.2138 100.757 37.8543C101.994 36.4947 103.776 35.8149 106.105 35.8149C108.434 35.8149 110.217 36.4947 111.453 37.8543C112.69 39.2138 113.307 41.1349 113.307 43.6176V59.9323C113.307 62.4149 112.69 64.3361 111.453 65.6956C110.217 67.0551 108.434 67.7349 106.105 67.7349ZM106.105 63.3016C107.744 63.3016 108.563 62.2819 108.563 60.2426V43.3073C108.563 41.2679 107.744 40.2483 106.105 40.2483C104.466 40.2483 103.646 41.2679 103.646 43.3073V60.2426C103.646 62.2819 104.466 63.3016 106.105 63.3016ZM116.516 36.2583H123.546C125.99 36.2583 127.772 36.8494 128.894 38.0316C130.015 39.1843 130.576 40.9724 130.576 43.3959V45.3023C130.576 48.5238 129.541 50.5631 127.471 51.4203V51.5089C128.621 51.8636 129.426 52.5877 129.886 53.6813C130.375 54.7748 130.619 56.2378 130.619 58.0703V63.5233C130.619 64.4099 130.648 65.1341 130.705 65.6956C130.763 66.2276 130.907 66.7596 131.137 67.2916H126.306C126.134 66.7891 126.019 66.3163 125.961 65.8729C125.904 65.4296 125.875 64.6316 125.875 63.4789V57.8043C125.875 56.3856 125.645 55.3955 125.185 54.8339C124.753 54.2724 123.992 53.9916 122.899 53.9916H121.26V67.2916H116.516V36.2583ZM122.985 49.5583C123.934 49.5583 124.639 49.3071 125.098 48.8046C125.587 48.3021 125.832 47.4598 125.832 46.2776V43.8836C125.832 42.7605 125.631 41.9477 125.228 41.4453C124.854 40.9428 124.25 40.6916 123.416 40.6916H121.26V49.5583H122.985ZM137.536 40.6916H132.576V36.2583H147.24V40.6916H142.28V67.2916H137.536V40.6916ZM149.536 36.2583H162.475V40.6916H154.281V48.8933H160.793V53.3266H154.281V62.8583H162.475V67.2916H149.536V36.2583ZM165.205 36.2583H172.235C174.678 36.2583 176.461 36.8494 177.583 38.0316C178.704 39.1843 179.265 40.9724 179.265 43.3959V45.3023C179.265 48.5238 178.23 50.5631 176.159 51.4203V51.5089C177.309 51.8636 178.115 52.5877 178.575 53.6813C179.064 54.7748 179.308 56.2378 179.308 58.0703V63.5233C179.308 64.4099 179.336 65.1341 179.394 65.6956C179.452 66.2276 179.595 66.7596 179.825 67.2916H174.995C174.822 66.7891 174.708 66.3163 174.65 65.8729C174.592 65.4296 174.564 64.6316 174.564 63.4789V57.8043C174.564 56.3856 174.333 55.3955 173.874 54.8339C173.442 54.2724 172.681 53.9916 171.588 53.9916H169.949V67.2916H165.205V36.2583ZM171.674 49.5583C172.623 49.5583 173.327 49.3071 173.787 48.8046C174.276 48.3021 174.52 47.4598 174.52 46.2776V43.8836C174.52 42.7605 174.319 41.9477 173.917 41.4453C173.543 40.9428 172.939 40.6916 172.105 40.6916H169.949V49.5583H171.674Z" fill="#153A59"/>
<path d="M32.5742 80.5918H39.5611C41.9188 80.5918 43.6871 81.2418 44.866 82.5425C46.0449 83.8432 46.6343 85.7495 46.6343 88.2615V91.3205C46.6343 93.8324 46.0449 95.7388 44.866 97.0395C43.6871 98.3402 41.9188 98.9901 39.5611 98.9901H37.3184V111.625H32.5742V80.5918ZM39.5611 94.5568C40.3374 94.5568 40.9125 94.3351 41.2863 93.8918C41.6888 93.4485 41.8901 92.6948 41.8901 91.6308V87.9511C41.8901 86.8871 41.6888 86.1335 41.2863 85.6901C40.9125 85.2468 40.3374 85.0251 39.5611 85.0251H37.3184V94.5568H39.5611ZM51.3606 80.5918H57.7868L62.7035 111.625H57.9594L57.0968 105.463V105.551H51.7056L50.8431 111.625H46.4439L51.3606 80.5918ZM56.5361 101.34L54.4228 86.0005H54.3365L52.2663 101.34H56.5361ZM65.0053 80.5918H72.0353C74.4792 80.5918 76.2619 81.1832 77.383 82.3651C78.5043 83.5178 79.065 85.3062 79.065 87.7295V89.6358C79.065 92.8571 78.0299 94.8964 75.96 95.7538V95.8425C77.1103 96.1971 77.9152 96.9215 78.3749 98.0148C78.864 99.1081 79.1081 100.571 79.1081 102.404V107.857C79.1081 108.743 79.1374 109.468 79.1944 110.029C79.2522 110.561 79.3962 111.093 79.6257 111.625H74.7955C74.623 111.122 74.508 110.65 74.4505 110.206C74.393 109.763 74.3643 108.965 74.3643 107.812V102.138C74.3643 100.719 74.1342 99.7288 73.6742 99.1675C73.2429 98.6062 72.4809 98.3251 71.3883 98.3251H69.7494V111.625H65.0053V80.5918ZM71.4746 93.8918C72.4234 93.8918 73.1278 93.6408 73.5879 93.1381C74.0767 92.6354 74.3211 91.7931 74.3211 90.6111V88.2171C74.3211 87.0938 74.1198 86.2815 73.7173 85.7788C73.3435 85.2761 72.7397 85.0251 71.9059 85.0251H69.7494V93.8918H71.4746ZM86.025 85.0251H81.0651V80.5918H95.729V85.0251H90.7692V111.625H86.025V85.0251ZM98.0256 80.5918H103.977L108.592 99.1675H108.678V80.5918H112.905V111.625H108.032L102.339 88.9708H102.252V111.625H98.0256V80.5918ZM116.432 80.5918H129.37V85.0251H121.176V93.2268H127.688V97.6601H121.176V107.192H129.37V111.625H116.432V80.5918ZM132.1 80.5918H139.13C141.574 80.5918 143.357 81.1832 144.478 82.3651C145.599 83.5178 146.16 85.3062 146.16 87.7295V89.6358C146.16 92.8571 145.125 94.8964 143.055 95.7538V95.8425C144.204 96.1971 145.009 96.9215 145.47 98.0148C145.958 99.1081 146.203 100.571 146.203 102.404V107.857C146.203 108.743 146.232 109.468 146.289 110.029C146.346 110.561 146.49 111.093 146.721 111.625H141.89C141.718 111.122 141.602 110.65 141.545 110.206C141.487 109.763 141.459 108.965 141.459 107.812V102.138C141.459 100.719 141.229 99.7288 140.769 99.1675C140.338 98.6062 139.575 98.3251 138.483 98.3251H136.844V111.625H132.1V80.5918ZM138.569 93.8918C139.518 93.8918 140.222 93.6408 140.683 93.1381C141.171 92.6354 141.416 91.7931 141.416 90.6111V88.2171C141.416 87.0938 141.214 86.2815 140.812 85.7788C140.438 85.2761 139.834 85.0251 139.001 85.0251H136.844V93.8918H138.569Z" fill="#153A59"/>
<path d="M296.512 0H382V22.1667H302.673C299.27 22.1667 296.512 19.3312 296.512 15.8333V0Z" fill="#060D13" fill-opacity="0.32"/>
<path d="M310.153 11.9196H307.409V14.3132H310.609V15.0415H306.574V8.2876H310.568V9.02044H307.409V11.1914H310.153V11.9196ZM316.759 15.0415H315.911L313.361 9.99459L313.348 15.0415H312.504V8.2876H313.352L315.902 13.3251L315.916 8.2876H316.759V15.0415ZM323.18 9.02044H321.15V15.0415H320.337V9.02044H318.306V8.2876H323.18V9.02044ZM327.029 12.2861H325.716V15.0415H324.886V8.2876H326.813C327.119 8.29377 327.408 8.33858 327.679 8.4221C327.949 8.50554 328.187 8.63079 328.391 8.79783C328.593 8.96479 328.751 9.17506 328.866 9.42871C328.983 9.67919 329.041 9.97448 329.041 10.3147C329.041 10.5342 329.01 10.7352 328.947 10.9177C328.887 11.1002 328.803 11.2656 328.694 11.414C328.585 11.5625 328.456 11.6939 328.306 11.8083C328.156 11.9227 327.99 12.0201 327.81 12.1006L329.204 14.9858L329.199 15.0415H328.32L327.029 12.2861ZM325.716 11.581H326.835C327.021 11.5779 327.198 11.5486 327.362 11.4929C327.528 11.4342 327.674 11.3506 327.801 11.2424C327.924 11.1342 328.022 11.0027 328.094 10.8481C328.166 10.6904 328.202 10.5095 328.202 10.3054C328.202 10.0889 328.167 9.9003 328.099 9.73944C328.029 9.57556 327.933 9.43797 327.81 9.32658C327.686 9.21836 327.539 9.13642 327.367 9.08077C327.199 9.02511 327.014 8.99574 326.813 8.99266H325.716V11.581ZM332.894 11.6785L334.393 8.2876H335.34L333.296 12.5227L333.283 15.0415H332.506L332.493 12.5227L330.449 8.2876H331.401L332.894 11.6785ZM344.112 14.3132H347.325V15.0415H343.277V8.2876H344.112V14.3132ZM352.889 11.9196H350.145V14.3132H353.345V15.0415H349.31V8.2876H353.304V9.02044H350.145V11.1914H352.889V11.9196ZM356.991 15.0415L354.914 8.2876H355.808L357.252 13.3298L357.346 13.6591L357.446 13.3205L358.899 8.2876H359.788L357.717 15.0415H356.991ZM365.099 11.9196H362.355V14.3132H365.555V15.0415H361.521V8.2876H365.514V9.02044H362.355V11.1914H365.099V11.9196ZM368.532 14.3132H371.745V15.0415H367.697V8.2876H368.532V14.3132Z" fill="white"/>
</g>
</g>
<defs>
<clipPath id="clip0_7551_5340">
<rect width="382" height="152" fill="white"/>
</clipPath>
</defs>
</svg>
