<svg  viewBox="0 0 382 151" fill="none" xmlns="http://www.w3.org/2000/svg">
<mask id="mask0_7551_5353" style="mask-type:luminance" maskUnits="userSpaceOnUse" x="0" y="1" width="382" height="149">
<path d="M375.839 1.35254H6.16129C2.7585 1.35254 0 4.11893 0 7.53145V143.468C0 146.88 2.7585 149.646 6.16129 149.646H375.839C379.241 149.646 382 146.88 382 143.468V7.53145C382 4.11893 379.241 1.35254 375.839 1.35254Z" fill="white"/>
</mask>
<g mask="url(#mask0_7551_5353)">
<path d="M375.839 1.35254H6.16129C2.7585 1.35254 0 4.11893 0 7.53145V143.468C0 146.88 2.7585 149.646 6.16129 149.646H375.839C379.241 149.646 382 146.88 382 143.468V7.53145C382 4.11893 379.241 1.35254 375.839 1.35254Z" fill="white" fill-opacity="0.52"/>
<path d="M382 1.35254H0V149.646H382V1.35254Z" fill="#89B5D6"/>
<path d="M32.5752 36.7279H37.3194V67.0046H32.5752V36.7279ZM40.8725 36.7279H47.6437L50.6627 58.3974H50.749L53.768 36.7279H60.5393V67.0046H56.0539V44.0808H55.9676L52.5173 67.0046H48.5494L45.0991 44.0808H45.0128V67.0046H40.8725V36.7279ZM64.0796 36.7279H71.0665C73.4242 36.7279 75.1925 37.3623 76.3714 38.631C77.5503 39.8998 78.1395 41.7597 78.1395 44.2106V47.195C78.1395 49.646 77.5503 51.5058 76.3714 52.7746C75.1925 54.0433 73.4242 54.6777 71.0665 54.6777H68.8238V67.0046H64.0796V36.7279ZM71.0665 50.3524C71.8429 50.3524 72.4179 50.1362 72.7917 49.7036C73.1942 49.2711 73.3954 48.5358 73.3954 47.4978V43.9078C73.3954 42.8698 73.1942 42.1345 72.7917 41.702C72.4179 41.2694 71.8429 41.0532 71.0665 41.0532H68.8238V50.3524H71.0665ZM82.866 36.7279H89.2922L94.2089 67.0046H89.4647L88.6021 60.9925V61.079H83.211L82.3484 67.0046H77.9492L82.866 36.7279ZM88.0414 56.9701L85.9281 42.0047H85.8419L83.7717 56.9701H88.0414ZM103.111 67.4371C100.84 67.4371 99.1002 66.7883 97.8926 65.4908C96.7142 64.1932 96.1243 62.3622 96.1243 59.9977V43.7348C96.1243 41.3704 96.7142 39.5393 97.8926 38.2418C99.1002 36.9442 100.84 36.2954 103.111 36.2954C105.383 36.2954 107.108 36.9442 108.287 38.2418C109.494 39.5393 110.098 41.3704 110.098 43.7348V46.9355H105.613V43.4321C105.613 41.5578 104.822 40.6206 103.241 40.6206C101.659 40.6206 100.868 41.5578 100.868 43.4321V60.3437C100.868 62.1891 101.659 63.1119 103.241 63.1119C104.822 63.1119 105.613 62.1891 105.613 60.3437V55.7157H110.098V59.9977C110.098 62.3622 109.494 64.1932 108.287 65.4908C107.108 66.7883 105.383 67.4371 103.111 67.4371ZM116.646 41.0532H111.686V36.7279H126.35V41.0532H121.39V67.0046H116.646V41.0532Z" fill="#153A59"/>
<path d="M32.5752 79.98H39.5621C41.9198 79.98 43.6881 80.6141 44.867 81.8831C46.0459 83.1521 46.6353 85.0119 46.6353 87.4626V90.4471C46.6353 92.8978 46.0459 94.7576 44.867 96.0266C43.6881 97.2956 41.9198 97.9297 39.5621 97.9297H37.3194V110.257H32.5752V79.98ZM39.5621 93.6045C40.3384 93.6045 40.9135 93.3882 41.2873 92.9557C41.6898 92.5232 41.8911 91.7879 41.8911 90.7498V87.1599C41.8911 86.1218 41.6898 85.3865 41.2873 84.954C40.9135 84.5215 40.3384 84.3052 39.5621 84.3052H37.3194V93.6045H39.5621ZM51.3616 79.98H57.7878L62.7045 110.257H57.9603L57.0977 104.245V104.331H51.7066L50.844 110.257H46.4449L51.3616 79.98ZM56.5371 100.222L54.4237 85.2568H54.3375L52.2673 100.222H56.5371ZM65.0062 79.98H72.0363C74.4802 79.98 76.2629 80.5569 77.3839 81.7101C78.5053 82.8346 79.066 84.5794 79.066 86.9436V88.8035C79.066 91.9462 78.0309 93.9358 75.961 94.7723V94.8588C77.1113 95.2048 77.9161 95.9115 78.3759 96.9782C78.865 98.0448 79.1091 99.4721 79.1091 101.26V106.58C79.1091 107.445 79.1384 108.152 79.1954 108.7C79.2531 109.219 79.3971 109.738 79.6267 110.257H74.7965C74.624 109.766 74.5089 109.305 74.4515 108.873C74.394 108.44 74.3652 107.662 74.3652 106.537V101.001C74.3652 99.6166 74.1352 98.6503 73.6752 98.1027C73.2439 97.5551 72.4819 97.2809 71.3893 97.2809H69.7504V110.257H65.0062V79.98ZM71.4756 92.9557C72.4244 92.9557 73.1288 92.7109 73.5889 92.2204C74.0776 91.73 74.3221 90.9082 74.3221 89.755V87.4194C74.3221 86.3234 74.1208 85.531 73.7183 85.0405C73.3445 84.5501 72.7406 84.3052 71.9069 84.3052H69.7504V92.9557H71.4756ZM86.0259 84.3052H81.0661V79.98H95.73V84.3052H90.7701V110.257H86.0259V84.3052ZM98.0266 79.98H103.978L108.593 98.1027H108.679V79.98H112.906V110.257H108.033L102.339 88.1547H102.253V110.257H98.0266V79.98ZM116.433 79.98H129.371V84.3052H121.177V92.3069H127.689V96.6322H121.177V105.931H129.371V110.257H116.433V79.98ZM132.101 79.98H139.131C141.575 79.98 143.357 80.5569 144.479 81.7101C145.6 82.8346 146.161 84.5794 146.161 86.9436V88.8035C146.161 91.9462 145.126 93.9358 143.056 94.7723V94.8588C144.205 95.2048 145.01 95.9115 145.471 96.9782C145.959 98.0448 146.204 99.4721 146.204 101.26V106.58C146.204 107.445 146.233 108.152 146.29 108.7C146.347 109.219 146.491 109.738 146.722 110.257H141.891C141.719 109.766 141.603 109.305 141.546 108.873C141.488 108.44 141.46 107.662 141.46 106.537V101.001C141.46 99.6166 141.23 98.6503 140.77 98.1027C140.338 97.5551 139.576 97.2809 138.484 97.2809H136.845V110.257H132.101V79.98ZM138.57 92.9557C139.519 92.9557 140.223 92.7109 140.684 92.2204C141.172 91.73 141.417 90.9082 141.417 89.755V87.4194C141.417 86.3234 141.215 85.531 140.813 85.0405C140.439 84.5501 139.835 84.3052 139.001 84.3052H136.845V92.9557H138.57Z" fill="#153A59"/>
<path d="M308.834 1.35303H381.999V22.9792H314.995C311.593 22.9792 308.834 20.2128 308.834 16.8003V1.35303Z" fill="#060D13" fill-opacity="0.32"/>
<path d="M319.778 9.43896L320.847 12.7336L322.003 9.43896H323.04V16.0282H322.228V13.3988L322.296 10.6473L321.082 14.1953H320.603L319.489 10.7423L319.557 13.3988V16.0282H318.744V9.43896H319.778ZM324.967 9.43896H328.938V10.1675H327.363V15.3041H328.938V16.0282H324.967V15.3041H326.506V10.1675H324.967V9.43896ZM330.986 16.0282V9.43896H332.507C332.763 9.44198 333.003 9.46909 333.229 9.52037C333.457 9.56864 333.668 9.63808 333.861 9.7286C334.128 9.85226 334.365 10.0151 334.569 10.2174C334.777 10.4165 334.942 10.6473 335.065 10.9097C335.177 11.133 335.261 11.3774 335.318 11.6429C335.378 11.9084 335.41 12.192 335.413 12.4937V12.9779C335.413 13.2676 335.384 13.5421 335.327 13.8016C335.273 14.061 335.193 14.2994 335.088 14.5166C334.98 14.7429 334.843 14.9481 334.677 15.1321C334.512 15.3161 334.327 15.473 334.123 15.6027C333.906 15.7385 333.661 15.8426 333.386 15.915C333.116 15.9875 332.823 16.0251 332.507 16.0282H330.986ZM331.835 10.1268V15.3448H332.507C332.747 15.3418 332.966 15.3116 333.161 15.2542C333.359 15.1969 333.536 15.1155 333.689 15.0099C333.852 14.9013 333.992 14.7685 334.109 14.6116C334.229 14.4518 334.324 14.2737 334.393 14.0776C334.453 13.9177 334.499 13.7457 334.529 13.5617C334.559 13.3747 334.575 13.1801 334.578 12.9779V12.4846C334.575 12.2795 334.557 12.0834 334.524 11.8963C334.494 11.7062 334.447 11.5298 334.384 11.3668C334.303 11.1556 334.193 10.9655 334.055 10.7966C333.919 10.6246 333.752 10.4858 333.554 10.3802C333.413 10.3018 333.255 10.2415 333.08 10.1992C332.905 10.1539 332.714 10.1298 332.507 10.1268H331.835ZM344.225 15.3177H347.438V16.0282H343.39V9.43896H344.225V15.3177ZM353.002 12.9824H350.258V15.3177H353.458V16.0282H349.424V9.43896H353.417V10.1539H350.258V12.2719H353.002V12.9824ZM357.104 16.0282L355.027 9.43896H355.921L357.365 14.3582L357.459 14.6795L357.559 14.3492L359.012 9.43896H359.901L357.83 16.0282H357.104ZM365.212 12.9824H362.469V15.3177H365.668V16.0282H361.634V9.43896H365.627V10.1539H362.469V12.2719H365.212V12.9824ZM368.645 15.3177H371.858V16.0282H367.81V9.43896H368.645V15.3177Z" fill="white"/>
</g>
</svg>
