<svg  viewBox="0 0 382 152" fill="none" xmlns="http://www.w3.org/2000/svg">
<g clip-path="url(#clip0_7551_5366)">
<mask id="mask0_7551_5366" style="mask-type:luminance" maskUnits="userSpaceOnUse" x="0" y="0" width="382" height="152">
<path d="M375.839 0H6.16129C2.7585 0 0 2.83553 0 6.33333V145.667C0 149.164 2.7585 152 6.16129 152H375.839C379.241 152 382 149.164 382 145.667V6.33333C382 2.83553 379.241 0 375.839 0Z" fill="white"/>
</mask>
<g mask="url(#mask0_7551_5366)">
<path d="M375.839 0H6.16129C2.7585 0 0 2.83553 0 6.33333V145.667C0 149.164 2.7585 152 6.16129 152H375.839C379.241 152 382 149.164 382 145.667V6.33333C382 2.83553 379.241 0 375.839 0Z" fill="white" fill-opacity="0.52"/>
<path d="M382 0H0V152H382V0Z" fill="#153A59"/>
<path d="M39.2594 67.7349C36.9879 67.7349 35.2484 67.0699 34.0408 65.7399C32.8619 64.4099 32.2725 62.5331 32.2725 60.1096V43.4403C32.2725 41.0167 32.8619 39.1399 34.0408 37.8099C35.2484 36.4799 36.9879 35.8149 39.2594 35.8149C41.5308 35.8149 43.256 36.4799 44.4348 37.8099C45.6425 39.1399 46.2463 41.0167 46.2463 43.4403V46.7209H41.7608V43.1299C41.7608 41.2088 40.9701 40.2483 39.3888 40.2483C37.8074 40.2483 37.0167 41.2088 37.0167 43.1299V60.4643C37.0167 62.3558 37.8074 63.3016 39.3888 63.3016C40.9701 63.3016 41.7608 62.3558 41.7608 60.4643V55.7206H46.2463V60.1096C46.2463 62.5331 45.6425 64.4099 44.4348 65.7399C43.256 67.0699 41.5308 67.7349 39.2594 67.7349ZM49.0847 36.2583H53.8289V48.8933H58.9181V36.2583H63.6623V67.2916H58.9181V53.3266H53.8289V67.2916H49.0847V36.2583ZM70.8615 36.2583H77.2876L82.2043 67.2916H77.4601L76.5976 61.1293V61.2179H71.2065L70.3439 67.2916H65.9448L70.8615 36.2583ZM76.037 57.0063L73.9236 41.6669H73.8374L71.7672 57.0063H76.037ZM84.5063 36.2583H91.2776L94.2966 58.4693H94.3829L97.4019 36.2583H104.173V67.2916H99.6878V43.7949H99.6015L96.1512 67.2916H92.1833L88.733 43.7949H88.6467V67.2916H84.5063V36.2583ZM107.714 36.2583H114.701C117.058 36.2583 118.826 36.9085 120.005 38.2089C121.184 39.5094 121.774 41.4157 121.774 43.9279V46.9869C121.774 49.4991 121.184 51.4055 120.005 52.7059C118.826 54.0064 117.058 54.6566 114.701 54.6566H112.458V67.2916H107.714V36.2583ZM114.701 50.2233C115.477 50.2233 116.051 50.0016 116.426 49.5583C116.828 49.1149 117.029 48.3613 117.029 47.2973V43.6176C117.029 42.5536 116.828 41.7999 116.426 41.3566C116.051 40.9133 115.477 40.6916 114.701 40.6916H112.458V50.2233H114.701ZM124.35 36.2583H129.094V67.2916H124.35V36.2583ZM139.505 67.7349C137.176 67.7349 135.393 67.0551 134.157 65.6956C132.92 64.3361 132.302 62.4149 132.302 59.9323V43.6176C132.302 41.1349 132.92 39.2138 134.157 37.8543C135.393 36.4947 137.176 35.8149 139.505 35.8149C141.834 35.8149 143.616 36.4947 144.853 37.8543C146.089 39.2138 146.708 41.1349 146.708 43.6176V59.9323C146.708 62.4149 146.089 64.3361 144.853 65.6956C143.616 67.0551 141.834 67.7349 139.505 67.7349ZM139.505 63.3016C141.144 63.3016 141.963 62.2819 141.963 60.2426V43.3073C141.963 41.2679 141.144 40.2483 139.505 40.2483C137.866 40.2483 137.047 41.2679 137.047 43.3073V60.2426C137.047 62.2819 137.866 63.3016 139.505 63.3016ZM149.915 36.2583H155.867L160.482 54.8339H160.568V36.2583H164.795V67.2916H159.921L154.228 44.6373H154.142V67.2916H149.915V36.2583Z" fill="white"/>
<path d="M32.5752 80.5918H39.5621C41.9198 80.5918 43.6881 81.2418 44.867 82.5425C46.0459 83.8432 46.6353 85.7495 46.6353 88.2615V91.3205C46.6353 93.8324 46.0459 95.7388 44.867 97.0395C43.6881 98.3402 41.9198 98.9901 39.5621 98.9901H37.3194V111.625H32.5752V80.5918ZM39.5621 94.5568C40.3384 94.5568 40.9135 94.3351 41.2873 93.8918C41.6898 93.4485 41.8911 92.6948 41.8911 91.6308V87.9511C41.8911 86.8871 41.6898 86.1335 41.2873 85.6901C40.9135 85.2468 40.3384 85.0251 39.5621 85.0251H37.3194V94.5568H39.5621ZM51.3616 80.5918H57.7878L62.7045 111.625H57.9603L57.0978 105.463V105.551H51.7066L50.844 111.625H46.4449L51.3616 80.5918ZM56.5371 101.34L54.4238 86.0005H54.3375L52.2673 101.34H56.5371ZM65.0062 80.5918H72.0363C74.4802 80.5918 76.2629 81.1832 77.384 82.3651C78.5053 83.5178 79.066 85.3062 79.066 87.7295V89.6358C79.066 92.8571 78.0309 94.8964 75.961 95.7538V95.8425C77.1113 96.1971 77.9161 96.9215 78.3759 98.0148C78.865 99.1081 79.1091 100.571 79.1091 102.404V107.857C79.1091 108.743 79.1384 109.468 79.1954 110.029C79.2531 110.561 79.3972 111.093 79.6267 111.625H74.7965C74.624 111.122 74.5089 110.65 74.4515 110.206C74.394 109.763 74.3652 108.965 74.3652 107.812V102.138C74.3652 100.719 74.1352 99.7288 73.6752 99.1675C73.2439 98.6062 72.4819 98.3251 71.3893 98.3251H69.7504V111.625H65.0062V80.5918ZM71.4756 93.8918C72.4244 93.8918 73.1288 93.6408 73.5889 93.1381C74.0777 92.6354 74.3221 91.7931 74.3221 90.6111V88.2171C74.3221 87.0938 74.1208 86.2815 73.7183 85.7788C73.3445 85.2761 72.7407 85.0251 71.9069 85.0251H69.7504V93.8918H71.4756ZM86.0259 85.0251H81.0661V80.5918H95.73V85.0251H90.7701V111.625H86.0259V85.0251ZM98.0266 80.5918H103.978L108.593 99.1675H108.679V80.5918H112.906V111.625H108.033L102.339 88.9708H102.253V111.625H98.0266V80.5918ZM116.433 80.5918H129.371V85.0251H121.177V93.2268H127.689V97.6601H121.177V107.192H129.371V111.625H116.433V80.5918ZM132.101 80.5918H139.131C141.575 80.5918 143.358 81.1832 144.479 82.3651C145.6 83.5178 146.161 85.3062 146.161 87.7295V89.6358C146.161 92.8571 145.126 94.8964 143.056 95.7538V95.8425C144.205 96.1971 145.01 96.9215 145.471 98.0148C145.959 99.1081 146.204 100.571 146.204 102.404V107.857C146.204 108.743 146.233 109.468 146.29 110.029C146.347 110.561 146.491 111.093 146.722 111.625H141.891C141.719 111.122 141.603 110.65 141.546 110.206C141.488 109.763 141.46 108.965 141.46 107.812V102.138C141.46 100.719 141.23 99.7288 140.77 99.1675C140.338 98.6062 139.576 98.3251 138.484 98.3251H136.845V111.625H132.101V80.5918ZM138.57 93.8918C139.519 93.8918 140.223 93.6408 140.684 93.1381C141.172 92.6354 141.417 91.7931 141.417 90.6111V88.2171C141.417 87.0938 141.215 86.2815 140.813 85.7788C140.439 85.2761 139.835 85.0251 139.001 85.0251H136.845V93.8918H138.57Z" fill="white"/>
<path d="M269.557 0H382V22.1667H275.718C272.315 22.1667 269.557 19.3312 269.557 15.8333V0Z" fill="#060D13" fill-opacity="0.32"/>
<path d="M282.634 15.4405C282.566 15.0289 282.387 14.5855 282.098 14.1105C281.808 13.6292 281.395 13.1827 280.859 12.771C280.329 12.3594 279.799 12.0965 279.27 11.9825V11.5835C279.793 11.4569 280.295 11.2225 280.776 10.8805C281.263 10.5322 281.669 10.1142 281.996 9.62653C282.329 9.1262 282.541 8.6322 282.634 8.14453H283.022C283.077 8.4612 283.188 8.78736 283.354 9.12303C283.521 9.45236 283.733 9.76903 283.992 10.073C284.257 10.3707 284.553 10.6399 284.879 10.8805C285.366 11.2352 285.862 11.4695 286.367 11.5835V11.9825C286.028 12.0522 285.677 12.1947 285.314 12.41C284.956 12.6254 284.624 12.8819 284.316 13.1795C284.008 13.4709 283.755 13.778 283.558 14.101C283.268 14.576 283.09 15.0225 283.022 15.4405H282.634ZM295.196 12.3325V15.0415H294.362V8.28766H296.491C296.786 8.29384 297.064 8.34174 297.326 8.43143C297.591 8.52113 297.823 8.65096 298.021 8.82109C298.219 8.99114 298.376 9.20141 298.49 9.45197C298.608 9.70245 298.666 9.98999 298.666 10.3147C298.666 10.6395 298.608 10.927 298.49 11.1775C298.376 11.4249 298.219 11.6336 298.021 11.8038C297.823 11.9738 297.591 12.1037 297.326 12.1934C297.064 12.283 296.786 12.3294 296.491 12.3325H295.196ZM295.196 11.6275H296.491C296.684 11.6244 296.862 11.5934 297.024 11.5347C297.187 11.4729 297.328 11.3862 297.448 11.2749C297.569 11.1636 297.662 11.029 297.728 10.8713C297.797 10.7106 297.831 10.5281 297.831 10.324C297.831 10.1199 297.797 9.93591 297.728 9.77204C297.662 9.60809 297.57 9.46891 297.452 9.35451C297.332 9.24012 297.189 9.15193 297.024 9.0901C296.862 9.02827 296.684 8.99581 296.491 8.99272H295.196V11.6275ZM302.565 12.2861H301.251V15.0415H300.421V8.28766H302.348C302.655 8.29384 302.944 8.33865 303.215 8.42217C303.486 8.50561 303.723 8.63085 303.928 8.79789C304.129 8.96486 304.287 9.17512 304.401 9.42877C304.518 9.67926 304.577 9.97455 304.577 10.3147C304.577 10.5343 304.545 10.7353 304.482 10.9177C304.422 11.1002 304.338 11.2657 304.23 11.4141C304.122 11.5626 303.992 11.694 303.842 11.8084C303.691 11.9228 303.526 12.0202 303.346 12.1006L304.74 14.9859L304.736 15.0415H303.855L302.565 12.2861ZM301.251 11.5811H302.371C302.557 11.578 302.733 11.5486 302.899 11.493C303.064 11.4342 303.21 11.3507 303.336 11.2425C303.46 11.1343 303.557 11.0028 303.63 10.8482C303.702 10.6905 303.738 10.5096 303.738 10.3055C303.738 10.0889 303.704 9.90037 303.634 9.7395C303.565 9.57563 303.469 9.43804 303.346 9.32665C303.222 9.21843 303.074 9.13649 302.903 9.08084C302.735 9.02518 302.55 8.99581 302.348 8.99272H301.251V11.5811ZM310.109 11.9197H307.366V14.3133H310.565V15.0415H306.531V8.28766H310.524V9.02051H307.366V11.1914H310.109V11.9197ZM313.516 8.28766L314.585 11.6646L315.741 8.28766H316.779V15.0415H315.966V12.3465L316.034 9.52615L314.82 13.1629H314.342L313.227 9.62352L313.294 12.3465V15.0415H312.483V8.28766H313.516ZM318.705 8.28766H322.676V9.03444H321.101V14.2993H322.676V15.0415H318.705V14.2993H320.244V9.03444H318.705V8.28766ZM328.935 8.28766L328.943 12.8614C328.943 13.1768 328.889 13.4721 328.781 13.7473C328.673 14.0226 328.524 14.2622 328.334 14.4663C328.145 14.6736 327.919 14.8374 327.657 14.958C327.396 15.0756 327.109 15.1343 326.795 15.1343C326.477 15.1343 326.186 15.0756 325.924 14.958C325.663 14.8405 325.439 14.6782 325.252 14.471C325.066 14.2669 324.92 14.0272 324.815 13.752C324.709 13.4736 324.655 13.1768 324.652 12.8614L324.661 8.28766H325.455L325.473 12.8614C325.476 13.0624 325.506 13.2556 325.564 13.4412C325.624 13.6267 325.709 13.7906 325.821 13.9329C325.929 14.0751 326.065 14.1895 326.227 14.2761C326.393 14.3628 326.582 14.4061 326.795 14.4061C327.01 14.4061 327.197 14.3643 327.36 14.2808C327.522 14.1942 327.659 14.0782 327.77 13.9329C327.879 13.7906 327.961 13.6267 328.018 13.4412C328.075 13.2556 328.107 13.0624 328.113 12.8614L328.127 8.28766H328.935ZM331.831 8.28766L332.9 11.6646L334.056 8.28766H335.094V15.0415H334.281V12.3465L334.349 9.52615L333.135 13.1629H332.657L331.543 9.62352L331.61 12.3465V15.0415H330.798V8.28766H331.831ZM344.069 14.3133H347.282V15.0415H343.234V8.28766H344.069V14.3133ZM352.845 11.9197H350.101V14.3133H353.301V15.0415H349.266V8.28766H353.26V9.02051H350.101V11.1914H352.845V11.9197ZM356.946 15.0415L354.871 8.28766H355.764L357.208 13.3299L357.303 13.6592L357.402 13.3206L358.856 8.28766H359.744L357.673 15.0415H356.946ZM365.055 11.9197H362.311V14.3133H365.511V15.0415H361.477V8.28766H365.471V9.02051H362.311V11.1914H365.055V11.9197ZM368.489 14.3133H371.702V15.0415H367.654V8.28766H368.489V14.3133Z" fill="white"/>
</g>
</g>
<defs>
<clipPath id="clip0_7551_5366">
<rect width="382" height="152" fill="white"/>
</clipPath>
</defs>
</svg>
