<svg width="32" height="32" viewBox="0 0 32 32" fill="none" xmlns="http://www.w3.org/2000/svg">
<path fill-rule="evenodd" clip-rule="evenodd" d="M0.302237 0.636479C-0.13599 1.1625 -0.109168 1.39204 0.458216 1.95625C1.09864 2.59396 1.19107 2.59396 1.83149 1.95625C2.39888 1.39204 2.4257 1.1625 1.98747 0.636479C1.3194 -0.164253 0.970306 -0.164253 0.302237 0.636479ZM4.01602 0.636479C3.5778 1.1625 3.60462 1.39204 4.172 1.95625C4.81242 2.59396 4.90486 2.59396 5.54528 1.95625C6.11266 1.39204 6.13948 1.1625 5.70126 0.636479C5.03319 -0.164253 4.68409 -0.164253 4.01602 0.636479ZM7.72981 0.636479C7.29158 1.1625 7.3184 1.39204 7.88579 1.95625C8.52621 2.59396 8.61864 2.59396 9.25907 1.95625C9.82645 1.39204 9.85327 1.1625 9.41504 0.636479C9.12289 0.286621 8.74367 0 8.57243 0C8.40118 0 8.02196 0.286621 7.72981 0.636479ZM11.4436 4.33216C11.0054 4.85818 11.0322 5.08772 11.5996 5.65193C12.24 6.28964 12.3324 6.28964 12.9729 5.65193C13.5402 5.08772 13.5671 4.85818 13.1288 4.33216C12.8367 3.9823 12.4575 3.69568 12.2862 3.69568C12.115 3.69568 11.7357 3.9823 11.4436 4.33216ZM15.1574 4.33216C14.7192 4.85818 14.746 5.08772 15.3134 5.65193C15.9538 6.28964 16.0462 6.28964 16.6866 5.65193C17.254 5.08772 17.2808 4.85818 16.8426 4.33216C16.5505 3.9823 16.1712 3.69568 16 3.69568C15.8288 3.69568 15.4495 3.9823 15.1574 4.33216ZM18.8712 4.33216C18.4329 4.85818 18.4598 5.08772 19.0271 5.65193C19.6676 6.28964 19.76 6.28964 20.4004 5.65193C20.9678 5.08772 20.9946 4.85818 20.5564 4.33216C20.2643 3.9823 19.885 3.69568 19.7138 3.69568C19.5425 3.69568 19.1633 3.9823 18.8712 4.33216ZM22.585 4.33216C22.1467 4.85818 22.1736 5.08772 22.7409 5.65193C23.3814 6.28964 23.4738 6.28964 24.1142 5.65193C24.6816 5.08772 24.7084 4.85818 24.2702 4.33216C23.978 3.9823 23.5988 3.69568 23.4276 3.69568C23.2563 3.69568 22.8771 3.9823 22.585 4.33216ZM26.2987 4.33216C25.8605 4.85818 25.8873 5.08772 26.4547 5.65193C27.0951 6.28964 27.1876 6.28964 27.828 5.65193C28.3954 5.08772 28.4222 4.85818 27.984 4.33216C27.6918 3.9823 27.3126 3.69568 27.1414 3.69568C26.9701 3.69568 26.5909 3.9823 26.2987 4.33216ZM11.4436 8.02785C11.0054 8.55386 11.0322 8.78341 11.5996 9.34762C12.24 9.98533 12.3324 9.98533 12.9729 9.34762C13.5402 8.78341 13.5671 8.55386 13.1288 8.02785C12.8367 7.67799 12.4575 7.39137 12.2862 7.39137C12.115 7.39137 11.7357 7.67799 11.4436 8.02785ZM22.585 8.02785C22.1467 8.55386 22.1736 8.78341 22.7409 9.34762C23.3814 9.98533 23.4738 9.98533 24.1142 9.34762C24.6816 8.78341 24.7084 8.55386 24.2702 8.02785C23.978 7.67799 23.5988 7.39137 23.4276 7.39137C23.2563 7.39137 22.8771 7.67799 22.585 8.02785ZM26.2987 8.02785C25.8605 8.55386 25.8873 8.78341 26.4547 9.34762C27.0951 9.98533 27.1876 9.98533 27.828 9.34762C28.3954 8.78341 28.4222 8.55386 27.984 8.02785C27.6918 7.67799 27.3126 7.39137 27.1414 7.39137C26.9701 7.39137 26.5909 7.67799 26.2987 8.02785ZM30.0125 8.02785C29.5743 8.55386 29.6011 8.78341 30.1685 9.34762C30.8089 9.98533 30.9014 9.98533 31.5418 9.34762C32.1092 8.78341 32.136 8.55386 31.6978 8.02785C31.4056 7.67799 31.0264 7.39137 30.8551 7.39137C30.6839 7.39137 30.3047 7.67799 30.0125 8.02785ZM11.4436 11.7235C11.0054 12.2495 11.0322 12.4791 11.5996 13.0433C12.24 13.681 12.3324 13.681 12.9729 13.0433C13.5402 12.4791 13.5671 12.2495 13.1288 11.7235C12.8367 11.3737 12.4575 11.0871 12.2862 11.0871C12.115 11.0871 11.7357 11.3737 11.4436 11.7235ZM7.72981 15.4192C7.29158 15.9452 7.3184 16.1748 7.88579 16.739C8.52621 17.3767 8.61864 17.3767 9.25907 16.739C9.82645 16.1748 9.85327 15.9452 9.41504 15.4192C9.12289 15.0694 8.74367 14.7827 8.57243 14.7827C8.40118 14.7827 8.02196 15.0694 7.72981 15.4192ZM11.4436 15.4192C11.0054 15.9452 11.0322 16.1748 11.5996 16.739C12.24 17.3767 12.3324 17.3767 12.9729 16.739C13.5402 16.1748 13.5671 15.9452 13.1288 15.4192C12.8367 15.0694 12.4575 14.7827 12.2862 14.7827C12.115 14.7827 11.7357 15.0694 11.4436 15.4192ZM15.1574 15.4192C14.7192 15.9452 14.746 16.1748 15.3134 16.739C15.9538 17.3767 16.0462 17.3767 16.6866 16.739C17.254 16.1748 17.2808 15.9452 16.8426 15.4192C16.5505 15.0694 16.1712 14.7827 16 14.7827C15.8288 14.7827 15.4495 15.0694 15.1574 15.4192ZM4.01602 19.1149C3.5778 19.6409 3.60462 19.8705 4.172 20.4347C4.81242 21.0724 4.90486 21.0724 5.54528 20.4347C6.11266 19.8705 6.13948 19.6409 5.70126 19.1149C5.40911 18.765 5.02989 18.4784 4.85864 18.4784C4.68739 18.4784 4.30817 18.765 4.01602 19.1149ZM7.72981 19.1149C7.29158 19.6409 7.3184 19.8705 7.88579 20.4347C8.52621 21.0724 8.61864 21.0724 9.25907 20.4347C9.82645 19.8705 9.85327 19.6409 9.41504 19.1149C9.12289 18.765 8.74367 18.4784 8.57243 18.4784C8.40118 18.4784 8.02196 18.765 7.72981 19.1149ZM15.1574 19.1149C14.7192 19.6409 14.746 19.8705 15.3134 20.4347C15.9538 21.0724 16.0462 21.0724 16.6866 20.4347C17.254 19.8705 17.2808 19.6409 16.8426 19.1149C16.5505 18.765 16.1712 18.4784 16 18.4784C15.8288 18.4784 15.4495 18.765 15.1574 19.1149ZM18.8712 19.1149C18.4329 19.6409 18.4598 19.8705 19.0271 20.4347C19.6676 21.0724 19.76 21.0724 20.4004 20.4347C20.9678 19.8705 20.9946 19.6409 20.5564 19.1149C20.2643 18.765 19.885 18.4784 19.7138 18.4784C19.5425 18.4784 19.1633 18.765 18.8712 19.1149ZM4.01602 22.8106C3.5778 23.3366 3.60462 23.5661 4.172 24.1303C4.81242 24.7681 4.90486 24.7681 5.54528 24.1303C6.11266 23.5661 6.13948 23.3366 5.70126 22.8106C5.40911 22.4607 5.02989 22.1741 4.85864 22.1741C4.68739 22.1741 4.30817 22.4607 4.01602 22.8106ZM18.8712 22.8106C18.4329 23.3366 18.4598 23.5661 19.0271 24.1303C19.6676 24.7681 19.76 24.7681 20.4004 24.1303C20.9678 23.5661 20.9946 23.3366 20.5564 22.8106C20.2643 22.4607 19.885 22.1741 19.7138 22.1741C19.5425 22.1741 19.1633 22.4607 18.8712 22.8106ZM4.01602 26.5063C3.5778 27.0323 3.60462 27.2618 4.172 27.826C4.81242 28.4637 4.90486 28.4637 5.54528 27.826C6.11266 27.2618 6.13948 27.0323 5.70126 26.5063C5.40911 26.1564 5.02989 25.8698 4.85864 25.8698C4.68739 25.8698 4.30817 26.1564 4.01602 26.5063ZM7.72981 26.5063C7.29158 27.0323 7.3184 27.2618 7.88579 27.826C8.52621 28.4637 8.61864 28.4637 9.25907 27.826C9.82645 27.2618 9.85327 27.0323 9.41504 26.5063C9.12289 26.1564 8.74367 25.8698 8.57243 25.8698C8.40118 25.8698 8.02196 26.1564 7.72981 26.5063ZM15.1574 26.5063C14.7192 27.0323 14.746 27.2618 15.3134 27.826C15.9538 28.4637 16.0462 28.4637 16.6866 27.826C17.254 27.2618 17.2808 27.0323 16.8426 26.5063C16.5505 26.1564 16.1712 25.8698 16 25.8698C15.8288 25.8698 15.4495 26.1564 15.1574 26.5063ZM18.8712 26.5063C18.4329 27.0323 18.4598 27.2618 19.0271 27.826C19.6676 28.4637 19.76 28.4637 20.4004 27.826C20.9678 27.2618 20.9946 27.0323 20.5564 26.5063C20.2643 26.1564 19.885 25.8698 19.7138 25.8698C19.5425 25.8698 19.1633 26.1564 18.8712 26.5063ZM7.72981 30.2019C7.29158 30.728 7.3184 30.9575 7.88579 31.5217C8.52621 32.1594 8.61864 32.1594 9.25907 31.5217C9.82645 30.9575 9.85327 30.728 9.41504 30.2019C9.12289 29.8521 8.74367 29.5655 8.57243 29.5655C8.40118 29.5655 8.02196 29.8521 7.72981 30.2019ZM11.4436 30.2019C11.0054 30.728 11.0322 30.9575 11.5996 31.5217C12.24 32.1594 12.3324 32.1594 12.9729 31.5217C13.5402 30.9575 13.5671 30.728 13.1288 30.2019C12.8367 29.8521 12.4575 29.5655 12.2862 29.5655C12.115 29.5655 11.7357 29.8521 11.4436 30.2019ZM15.1574 30.2019C14.7192 30.728 14.746 30.9575 15.3134 31.5217C15.9538 32.1594 16.0462 32.1594 16.6866 31.5217C17.254 30.9575 17.2808 30.728 16.8426 30.2019C16.5505 29.8521 16.1712 29.5655 16 29.5655C15.8288 29.5655 15.4495 29.8521 15.1574 30.2019Z" fill="#153A59"/>
</svg>
