<svg width="32" height="32" viewBox="0 0 32 32" fill="none" xmlns="http://www.w3.org/2000/svg">
<path fill-rule="evenodd" clip-rule="evenodd" d="M3.59841 0.570582C3.20575 1.04214 3.22978 1.24792 3.73817 1.75371C4.31199 2.3254 4.39481 2.3254 4.96864 1.75371C5.47702 1.24792 5.50105 1.04214 5.1084 0.570582C4.84663 0.256946 4.50684 0 4.3534 0C4.19996 0 3.86018 0.256946 3.59841 0.570582ZM6.92601 0.570582C6.53335 1.04214 6.55738 1.24792 7.06577 1.75371C7.63959 2.3254 7.72241 2.3254 8.29624 1.75371C8.80462 1.24792 8.82865 1.04214 8.436 0.570582C7.8374 -0.147247 7.5246 -0.147247 6.92601 0.570582ZM10.2536 0.570582C9.86095 1.04214 9.88498 1.24792 10.3934 1.75371C10.9672 2.3254 11.05 2.3254 11.6238 1.75371C12.1322 1.24792 12.1563 1.04214 11.7636 0.570582C11.165 -0.147247 10.8522 -0.147247 10.2536 0.570582ZM23.564 0.570582C23.1713 1.04214 23.1954 1.24792 23.7038 1.75371C24.2776 2.3254 24.3604 2.3254 24.9342 1.75371C25.4426 1.24792 25.4667 1.04214 25.074 0.570582C24.4754 -0.147247 24.1626 -0.147247 23.564 0.570582ZM0.270808 3.88364C-0.121849 4.3552 -0.097816 4.56098 0.410567 5.06677C0.984393 5.63846 1.06721 5.63846 1.64104 5.06677C2.14942 4.56098 2.17346 4.3552 1.7808 3.88364C1.1822 3.16581 0.869406 3.16581 0.270808 3.88364ZM6.92601 3.88364C6.53335 4.3552 6.55738 4.56098 7.06577 5.06677C7.63959 5.63846 7.72241 5.63846 8.29624 5.06677C8.80462 4.56098 8.82865 4.3552 8.436 3.88364C7.8374 3.16581 7.5246 3.16581 6.92601 3.88364ZM13.5812 3.88364C13.1885 4.3552 13.2126 4.56098 13.721 5.06677C14.2948 5.63846 14.3776 5.63846 14.9514 5.06677C15.4598 4.56098 15.4839 4.3552 15.0912 3.88364C14.8294 3.57 14.4896 3.31306 14.3362 3.31306C14.1828 3.31306 13.843 3.57 13.5812 3.88364ZM20.2364 3.88364C19.8437 4.3552 19.8678 4.56098 20.3762 5.06677C20.95 5.63846 21.0328 5.63846 21.6066 5.06677C22.115 4.56098 22.139 4.3552 21.7464 3.88364C21.4846 3.57 21.1448 3.31306 20.9914 3.31306C20.838 3.31306 20.4982 3.57 20.2364 3.88364ZM23.564 3.88364C23.1713 4.3552 23.1954 4.56098 23.7038 5.06677C24.2776 5.63846 24.3604 5.63846 24.9342 5.06677C25.4426 4.56098 25.4667 4.3552 25.074 3.88364C24.4754 3.16581 24.1626 3.16581 23.564 3.88364ZM26.8916 3.88364C26.4989 4.3552 26.523 4.56098 27.0314 5.06677C27.6052 5.63846 27.688 5.63846 28.2618 5.06677C28.7702 4.56098 28.7943 4.3552 28.4016 3.88364C27.803 3.16581 27.4902 3.16581 26.8916 3.88364ZM30.2192 3.88364C29.8265 4.3552 29.8506 4.56098 30.359 5.06677C30.9328 5.63846 31.0156 5.63846 31.5894 5.06677C32.0978 4.56098 32.1218 4.3552 31.7292 3.88364C31.1306 3.16581 30.8178 3.16581 30.2192 3.88364ZM0.270808 7.1967C-0.121849 7.66826 -0.097816 7.87403 0.410567 8.37983C0.984393 8.95152 1.06721 8.95152 1.64104 8.37983C2.14942 7.87403 2.17346 7.66826 1.7808 7.1967C1.51903 6.88306 1.17924 6.62612 1.0258 6.62612C0.872364 6.62612 0.532579 6.88306 0.270808 7.1967ZM6.92601 7.1967C6.53335 7.66826 6.55738 7.87403 7.06577 8.37983C7.63959 8.95152 7.72241 8.95152 8.29624 8.37983C8.80462 7.87403 8.82865 7.66826 8.436 7.1967C8.17423 6.88306 7.83444 6.62612 7.681 6.62612C7.52756 6.62612 7.18778 6.88306 6.92601 7.1967ZM13.5812 7.1967C13.1885 7.66826 13.2126 7.87403 13.721 8.37983C14.2948 8.95152 14.3776 8.95152 14.9514 8.37983C15.4598 7.87403 15.4839 7.66826 15.0912 7.1967C14.8294 6.88306 14.4896 6.62612 14.3362 6.62612C14.1828 6.62612 13.843 6.88306 13.5812 7.1967ZM20.2364 7.1967C19.8437 7.66826 19.8678 7.87403 20.3762 8.37983C20.95 8.95152 21.0328 8.95152 21.6066 8.37983C22.115 7.87403 22.139 7.66826 21.7464 7.1967C21.4846 6.88306 21.1448 6.62612 20.9914 6.62612C20.838 6.62612 20.4982 6.88306 20.2364 7.1967ZM23.564 7.1967C23.1713 7.66826 23.1954 7.87403 23.7038 8.37983C24.2776 8.95152 24.3604 8.95152 24.9342 8.37983C25.4426 7.87403 25.4667 7.66826 25.074 7.1967C24.8122 6.88306 24.4724 6.62612 24.319 6.62612C24.1656 6.62612 23.8258 6.88306 23.564 7.1967ZM26.8916 7.1967C26.4989 7.66826 26.523 7.87403 27.0314 8.37983C27.6052 8.95152 27.688 8.95152 28.2618 8.37983C28.7702 7.87403 28.7943 7.66826 28.4016 7.1967C28.1398 6.88306 27.8 6.62612 27.6466 6.62612C27.4932 6.62612 27.1534 6.88306 26.8916 7.1967ZM30.2192 7.1967C29.8265 7.66826 29.8506 7.87403 30.359 8.37983C30.9328 8.95152 31.0156 8.95152 31.5894 8.37983C32.0978 7.87403 32.1218 7.66826 31.7292 7.1967C31.4674 6.88306 31.1276 6.62612 30.9742 6.62612C30.8208 6.62612 30.481 6.88306 30.2192 7.1967ZM0.270808 10.5098C-0.121849 10.9813 -0.097816 11.1871 0.410567 11.6929C0.984393 12.2646 1.06721 12.2646 1.64104 11.6929C2.14942 11.1871 2.17346 10.9813 1.7808 10.5098C1.51903 10.1961 1.17924 9.93917 1.0258 9.93917C0.872364 9.93917 0.532579 10.1961 0.270808 10.5098ZM10.2536 10.5098C9.86095 10.9813 9.88498 11.1871 10.3934 11.6929C10.9672 12.2646 11.05 12.2646 11.6238 11.6929C12.1322 11.1871 12.1563 10.9813 11.7636 10.5098C11.5018 10.1961 11.162 9.93917 11.0086 9.93917C10.8552 9.93917 10.5154 10.1961 10.2536 10.5098ZM13.5812 10.5098C13.1885 10.9813 13.2126 11.1871 13.721 11.6929C14.2948 12.2646 14.3776 12.2646 14.9514 11.6929C15.4598 11.1871 15.4839 10.9813 15.0912 10.5098C14.8294 10.1961 14.4896 9.93917 14.3362 9.93917C14.1828 9.93917 13.843 10.1961 13.5812 10.5098ZM20.2364 10.5098C19.8437 10.9813 19.8678 11.1871 20.3762 11.6929C20.95 12.2646 21.0328 12.2646 21.6066 11.6929C22.115 11.1871 22.139 10.9813 21.7464 10.5098C21.4846 10.1961 21.1448 9.93917 20.9914 9.93917C20.838 9.93917 20.4982 10.1961 20.2364 10.5098ZM23.564 10.5098C23.1713 10.9813 23.1954 11.1871 23.7038 11.6929C24.2776 12.2646 24.3604 12.2646 24.9342 11.6929C25.4426 11.1871 25.4667 10.9813 25.074 10.5098C24.8122 10.1961 24.4724 9.93917 24.319 9.93917C24.1656 9.93917 23.8258 10.1961 23.564 10.5098ZM26.8916 10.5098C26.4989 10.9813 26.523 11.1871 27.0314 11.6929C27.6052 12.2646 27.688 12.2646 28.2618 11.6929C28.7702 11.1871 28.7943 10.9813 28.4016 10.5098C28.1398 10.1961 27.8 9.93917 27.6466 9.93917C27.4932 9.93917 27.1534 10.1961 26.8916 10.5098ZM30.2192 10.5098C29.8265 10.9813 29.8506 11.1871 30.359 11.6929C30.9328 12.2646 31.0156 12.2646 31.5894 11.6929C32.0978 11.1871 32.1218 10.9813 31.7292 10.5098C31.4674 10.1961 31.1276 9.93917 30.9742 9.93917C30.8208 9.93917 30.481 10.1961 30.2192 10.5098ZM3.59841 13.8228C3.20575 14.2944 3.22978 14.5002 3.73817 15.0059C4.31199 15.5776 4.39481 15.5776 4.96864 15.0059C5.47702 14.5002 5.50105 14.2944 5.1084 13.8228C4.84663 13.5092 4.50684 13.2522 4.3534 13.2522C4.19996 13.2522 3.86018 13.5092 3.59841 13.8228ZM6.92601 13.8228C6.53335 14.2944 6.55738 14.5002 7.06577 15.0059C7.63959 15.5776 7.72241 15.5776 8.29624 15.0059C8.80462 14.5002 8.82865 14.2944 8.436 13.8228C8.17423 13.5092 7.83444 13.2522 7.681 13.2522C7.52756 13.2522 7.18778 13.5092 6.92601 13.8228ZM10.2536 13.8228C9.86095 14.2944 9.88498 14.5002 10.3934 15.0059C10.9672 15.5776 11.05 15.5776 11.6238 15.0059C12.1322 14.5002 12.1563 14.2944 11.7636 13.8228C11.5018 13.5092 11.162 13.2522 11.0086 13.2522C10.8552 13.2522 10.5154 13.5092 10.2536 13.8228ZM30.2192 13.8228C29.8265 14.2944 29.8506 14.5002 30.359 15.0059C30.9328 15.5776 31.0156 15.5776 31.5894 15.0059C32.0978 14.5002 32.1218 14.2944 31.7292 13.8228C31.4674 13.5092 31.1276 13.2522 30.9742 13.2522C30.8208 13.2522 30.481 13.5092 30.2192 13.8228ZM30.2192 17.1359C29.8265 17.6074 29.8506 17.8132 30.359 18.319C30.9328 18.8907 31.0156 18.8907 31.5894 18.319C32.0978 17.8132 32.1218 17.6074 31.7292 17.1359C31.4674 16.8222 31.1276 16.5653 30.9742 16.5653C30.8208 16.5653 30.481 16.8222 30.2192 17.1359ZM3.59841 20.4489C3.20575 20.9205 3.22978 21.1263 3.73817 21.6321C4.31199 22.2037 4.39481 22.2037 4.96864 21.6321C5.47702 21.1263 5.50105 20.9205 5.1084 20.4489C4.84663 20.1353 4.50684 19.8783 4.3534 19.8783C4.19996 19.8783 3.86018 20.1353 3.59841 20.4489ZM30.2192 20.4489C29.8265 20.9205 29.8506 21.1263 30.359 21.6321C30.9328 22.2037 31.0156 22.2037 31.5894 21.6321C32.0978 21.1263 32.1218 20.9205 31.7292 20.4489C31.4674 20.1353 31.1276 19.8783 30.9742 19.8783C30.8208 19.8783 30.481 20.1353 30.2192 20.4489ZM3.59841 23.762C3.20575 24.2335 3.22978 24.4393 3.73817 24.9451C4.31199 25.5168 4.39481 25.5168 4.96864 24.9451C5.47702 24.4393 5.50105 24.2335 5.1084 23.762C4.84663 23.4484 4.50684 23.1914 4.3534 23.1914C4.19996 23.1914 3.86018 23.4484 3.59841 23.762ZM30.2192 23.762C29.8265 24.2335 29.8506 24.4393 30.359 24.9451C30.9328 25.5168 31.0156 25.5168 31.5894 24.9451C32.0978 24.4393 32.1218 24.2335 31.7292 23.762C31.4674 23.4484 31.1276 23.1914 30.9742 23.1914C30.8208 23.1914 30.481 23.4484 30.2192 23.762ZM3.59841 27.075C3.20575 27.5466 3.22978 27.7524 3.73817 28.2582C4.31199 28.8299 4.39481 28.8299 4.96864 28.2582C5.47702 27.7524 5.50105 27.5466 5.1084 27.075C4.84663 26.7614 4.50684 26.5045 4.3534 26.5045C4.19996 26.5045 3.86018 26.7614 3.59841 27.075ZM30.2192 27.075C29.8265 27.5466 29.8506 27.7524 30.359 28.2582C30.9328 28.8299 31.0156 28.8299 31.5894 28.2582C32.0978 27.7524 32.1218 27.5466 31.7292 27.075C31.4674 26.7614 31.1276 26.5045 30.9742 26.5045C30.8208 26.5045 30.481 26.7614 30.2192 27.075ZM3.59841 30.3881C3.20575 30.8597 3.22978 31.0654 3.73817 31.5712C4.31199 32.1429 4.39481 32.1429 4.96864 31.5712C5.47702 31.0654 5.50105 30.8597 5.1084 30.3881C4.84663 30.0745 4.50684 29.8175 4.3534 29.8175C4.19996 29.8175 3.86018 30.0745 3.59841 30.3881ZM6.92601 30.3881C6.53335 30.8597 6.55738 31.0654 7.06577 31.5712C7.63959 32.1429 7.72241 32.1429 8.29624 31.5712C8.80462 31.0654 8.82865 30.8597 8.436 30.3881C8.17423 30.0745 7.83444 29.8175 7.681 29.8175C7.52756 29.8175 7.18778 30.0745 6.92601 30.3881ZM10.2536 30.3881C9.86095 30.8597 9.88498 31.0654 10.3934 31.5712C10.9672 32.1429 11.05 32.1429 11.6238 31.5712C12.1322 31.0654 12.1563 30.8597 11.7636 30.3881C11.5018 30.0745 11.162 29.8175 11.0086 29.8175C10.8552 29.8175 10.5154 30.0745 10.2536 30.3881ZM13.5812 30.3881C13.1885 30.8597 13.2126 31.0654 13.721 31.5712C14.2948 32.1429 14.3776 32.1429 14.9514 31.5712C15.4598 31.0654 15.4839 30.8597 15.0912 30.3881C14.8294 30.0745 14.4896 29.8175 14.3362 29.8175C14.1828 29.8175 13.843 30.0745 13.5812 30.3881ZM16.9088 30.3881C16.5161 30.8597 16.5402 31.0654 17.0486 31.5712C17.6224 32.1429 17.7052 32.1429 18.279 31.5712C18.7874 31.0654 18.8115 30.8597 18.4188 30.3881C18.157 30.0745 17.8172 29.8175 17.6638 29.8175C17.5104 29.8175 17.1706 30.0745 16.9088 30.3881ZM20.2364 30.3881C19.8437 30.8597 19.8678 31.0654 20.3762 31.5712C20.95 32.1429 21.0328 32.1429 21.6066 31.5712C22.115 31.0654 22.139 30.8597 21.7464 30.3881C21.4846 30.0745 21.1448 29.8175 20.9914 29.8175C20.838 29.8175 20.4982 30.0745 20.2364 30.3881ZM23.564 30.3881C23.1713 30.8597 23.1954 31.0654 23.7038 31.5712C24.2776 32.1429 24.3604 32.1429 24.9342 31.5712C25.4426 31.0654 25.4667 30.8597 25.074 30.3881C24.8122 30.0745 24.4724 29.8175 24.319 29.8175C24.1656 29.8175 23.8258 30.0745 23.564 30.3881ZM26.8916 30.3881C26.4989 30.8597 26.523 31.0654 27.0314 31.5712C27.6052 32.1429 27.688 32.1429 28.2618 31.5712C28.7702 31.0654 28.7943 30.8597 28.4016 30.3881C28.1398 30.0745 27.8 29.8175 27.6466 29.8175C27.4932 29.8175 27.1534 30.0745 26.8916 30.3881ZM30.2192 30.3881C29.8265 30.8597 29.8506 31.0654 30.359 31.5712C30.9328 32.1429 31.0156 32.1429 31.5894 31.5712C32.0978 31.0654 32.1218 30.8597 31.7292 30.3881C31.4674 30.0745 31.1276 29.8175 30.9742 29.8175C30.8208 29.8175 30.481 30.0745 30.2192 30.3881Z" fill="#153A59"/>
</svg>
