<svg width="32" height="32" viewBox="0 0 32 32" fill="none" xmlns="http://www.w3.org/2000/svg">
<path fill-rule="evenodd" clip-rule="evenodd" d="M11.4436 0.636479C11.0054 1.1625 11.0322 1.39204 11.5996 1.95625C12.24 2.59396 12.3324 2.59396 12.9729 1.95625C13.5402 1.39204 13.5671 1.1625 13.1288 0.636479C12.8367 0.286621 12.4575 0 12.2862 0C12.115 0 11.7357 0.286621 11.4436 0.636479ZM15.1574 0.636479C14.7192 1.1625 14.746 1.39204 15.3134 1.95625C15.9538 2.59396 16.0462 2.59396 16.6866 1.95625C17.254 1.39204 17.2808 1.1625 16.8426 0.636479C16.5505 0.286621 16.1712 0 16 0C15.8288 0 15.4495 0.286621 15.1574 0.636479ZM18.8712 0.636479C18.4329 1.1625 18.4598 1.39204 19.0271 1.95625C19.6676 2.59396 19.76 2.59396 20.4004 1.95625C20.9678 1.39204 20.9946 1.1625 20.5564 0.636479C20.2643 0.286621 19.885 0 19.7138 0C19.5425 0 19.1633 0.286621 18.8712 0.636479ZM7.72981 4.33216C7.29158 4.85818 7.3184 5.08772 7.88579 5.65193C8.52621 6.28964 8.61864 6.28964 9.25906 5.65193C9.82645 5.08772 9.85327 4.85818 9.41504 4.33216C9.12289 3.9823 8.74367 3.69568 8.57243 3.69568C8.40118 3.69568 8.02196 3.9823 7.72981 4.33216ZM11.4436 4.33216C11.0054 4.85818 11.0322 5.08772 11.5996 5.65193C12.24 6.28964 12.3324 6.28964 12.9729 5.65193C13.5402 5.08772 13.5671 4.85818 13.1288 4.33216C12.8367 3.9823 12.4575 3.69568 12.2862 3.69568C12.115 3.69568 11.7357 3.9823 11.4436 4.33216ZM15.1574 4.33216C14.7192 4.85818 14.746 5.08772 15.3134 5.65193C15.9538 6.28964 16.0462 6.28964 16.6866 5.65193C17.254 5.08772 17.2808 4.85818 16.8426 4.33216C16.5505 3.9823 16.1712 3.69568 16 3.69568C15.8288 3.69568 15.4495 3.9823 15.1574 4.33216ZM18.8712 4.33216C18.4329 4.85818 18.4598 5.08772 19.0271 5.65193C19.6676 6.28964 19.76 6.28964 20.4004 5.65193C20.9678 5.08772 20.9946 4.85818 20.5564 4.33216C20.2643 3.9823 19.885 3.69568 19.7138 3.69568C19.5425 3.69568 19.1633 3.9823 18.8712 4.33216ZM22.585 4.33216C22.1467 4.85818 22.1736 5.08772 22.7409 5.65193C23.3814 6.28964 23.4738 6.28964 24.1142 5.65193C24.6816 5.08772 24.7084 4.85818 24.2702 4.33216C23.978 3.9823 23.5988 3.69568 23.4276 3.69568C23.2563 3.69568 22.8771 3.9823 22.585 4.33216ZM7.72981 8.02785C7.29158 8.55386 7.3184 8.78341 7.88579 9.34762C8.52621 9.98533 8.61864 9.98533 9.25906 9.34762C9.82645 8.78341 9.85327 8.55386 9.41504 8.02785C9.12289 7.67799 8.74367 7.39137 8.57243 7.39137C8.40118 7.39137 8.02196 7.67799 7.72981 8.02785ZM11.4436 8.02785C11.0054 8.55386 11.0322 8.78341 11.5996 9.34762C12.24 9.98533 12.3324 9.98533 12.9729 9.34762C13.5402 8.78341 13.5671 8.55386 13.1288 8.02785C12.8367 7.67799 12.4575 7.39137 12.2862 7.39137C12.115 7.39137 11.7357 7.67799 11.4436 8.02785ZM15.1574 8.02785C14.7192 8.55386 14.746 8.78341 15.3134 9.34762C15.9538 9.98533 16.0462 9.98533 16.6866 9.34762C17.254 8.78341 17.2808 8.55386 16.8426 8.02785C16.5505 7.67799 16.1712 7.39137 16 7.39137C15.8288 7.39137 15.4495 7.67799 15.1574 8.02785ZM18.8712 8.02785C18.4329 8.55386 18.4598 8.78341 19.0271 9.34762C19.6676 9.98533 19.76 9.98533 20.4004 9.34762C20.9678 8.78341 20.9946 8.55386 20.5564 8.02785C20.2643 7.67799 19.885 7.39137 19.7138 7.39137C19.5425 7.39137 19.1633 7.67799 18.8712 8.02785ZM22.585 8.02785C22.1467 8.55386 22.1736 8.78341 22.7409 9.34762C23.3814 9.98533 23.4738 9.98533 24.1142 9.34762C24.6816 8.78341 24.7084 8.55386 24.2702 8.02785C23.978 7.67799 23.5988 7.39137 23.4276 7.39137C23.2563 7.39137 22.8771 7.67799 22.585 8.02785ZM7.72981 11.7235C7.29158 12.2495 7.3184 12.4791 7.88579 13.0433C8.52621 13.681 8.61864 13.681 9.25906 13.0433C9.82645 12.4791 9.85327 12.2495 9.41504 11.7235C9.12289 11.3737 8.74367 11.0871 8.57243 11.0871C8.40118 11.0871 8.02196 11.3737 7.72981 11.7235ZM11.4436 11.7235C11.0054 12.2495 11.0322 12.4791 11.5996 13.0433C12.24 13.681 12.3324 13.681 12.9729 13.0433C13.5402 12.4791 13.5671 12.2495 13.1288 11.7235C12.8367 11.3737 12.4575 11.0871 12.2862 11.0871C12.115 11.0871 11.7357 11.3737 11.4436 11.7235ZM15.1574 11.7235C14.7192 12.2495 14.746 12.4791 15.3134 13.0433C15.9538 13.681 16.0462 13.681 16.6866 13.0433C17.254 12.4791 17.2808 12.2495 16.8426 11.7235C16.5505 11.3737 16.1712 11.0871 16 11.0871C15.8288 11.0871 15.4495 11.3737 15.1574 11.7235ZM18.8712 11.7235C18.4329 12.2495 18.4598 12.4791 19.0271 13.0433C19.6676 13.681 19.76 13.681 20.4004 13.0433C20.9678 12.4791 20.9946 12.2495 20.5564 11.7235C20.2643 11.3737 19.885 11.0871 19.7138 11.0871C19.5425 11.0871 19.1633 11.3737 18.8712 11.7235ZM22.585 11.7235C22.1467 12.2495 22.1736 12.4791 22.7409 13.0433C23.3814 13.681 23.4738 13.681 24.1142 13.0433C24.6816 12.4791 24.7084 12.2495 24.2702 11.7235C23.978 11.3737 23.5988 11.0871 23.4276 11.0871C23.2563 11.0871 22.8771 11.3737 22.585 11.7235ZM11.4436 15.4192C11.0054 15.9452 11.0322 16.1748 11.5996 16.739C12.24 17.3767 12.3324 17.3767 12.9729 16.739C13.5402 16.1748 13.5671 15.9452 13.1288 15.4192C12.8367 15.0694 12.4575 14.7827 12.2862 14.7827C12.115 14.7827 11.7357 15.0694 11.4436 15.4192ZM15.1574 15.4192C14.7192 15.9452 14.746 16.1748 15.3134 16.739C15.9538 17.3767 16.0462 17.3767 16.6866 16.739C17.254 16.1748 17.2808 15.9452 16.8426 15.4192C16.5505 15.0694 16.1712 14.7827 16 14.7827C15.8288 14.7827 15.4495 15.0694 15.1574 15.4192ZM18.8712 15.4192C18.4329 15.9452 18.4598 16.1748 19.0271 16.739C19.6676 17.3767 19.76 17.3767 20.4004 16.739C20.9678 16.1748 20.9946 15.9452 20.5564 15.4192C20.2643 15.0694 19.885 14.7827 19.7138 14.7827C19.5425 14.7827 19.1633 15.0694 18.8712 15.4192ZM4.01602 22.8106C3.5778 23.3366 3.60462 23.5661 4.172 24.1303C4.81242 24.7681 4.90486 24.7681 5.54528 24.1303C6.11266 23.5661 6.13948 23.3366 5.70126 22.8106C5.40911 22.4607 5.02989 22.1741 4.85864 22.1741C4.68739 22.1741 4.30817 22.4607 4.01602 22.8106ZM7.72981 22.8106C7.29158 23.3366 7.3184 23.5661 7.88579 24.1303C8.52621 24.7681 8.61864 24.7681 9.25906 24.1303C9.82645 23.5661 9.85327 23.3366 9.41504 22.8106C9.12289 22.4607 8.74367 22.1741 8.57243 22.1741C8.40118 22.1741 8.02196 22.4607 7.72981 22.8106ZM22.585 22.8106C22.1467 23.3366 22.1736 23.5661 22.7409 24.1303C23.3814 24.7681 23.4738 24.7681 24.1142 24.1303C24.6816 23.5661 24.7084 23.3366 24.2702 22.8106C23.978 22.4607 23.5988 22.1741 23.4276 22.1741C23.2563 22.1741 22.8771 22.4607 22.585 22.8106ZM26.2987 22.8106C25.8605 23.3366 25.8873 23.5661 26.4547 24.1303C27.0951 24.7681 27.1876 24.7681 27.828 24.1303C28.3954 23.5661 28.4222 23.3366 27.984 22.8106C27.6918 22.4607 27.3126 22.1741 27.1414 22.1741C26.9701 22.1741 26.5909 22.4607 26.2987 22.8106ZM0.302237 26.5063C-0.13599 27.0323 -0.109168 27.2618 0.458216 27.826C1.09864 28.4637 1.19107 28.4637 1.83149 27.826C2.39888 27.2618 2.4257 27.0323 1.98747 26.5063C1.69532 26.1564 1.3161 25.8698 1.14485 25.8698C0.973607 25.8698 0.594388 26.1564 0.302237 26.5063ZM4.01602 26.5063C3.5778 27.0323 3.60462 27.2618 4.172 27.826C4.81242 28.4637 4.90486 28.4637 5.54528 27.826C6.11266 27.2618 6.13948 27.0323 5.70126 26.5063C5.40911 26.1564 5.02989 25.8698 4.85864 25.8698C4.68739 25.8698 4.30817 26.1564 4.01602 26.5063ZM7.72981 26.5063C7.29158 27.0323 7.3184 27.2618 7.88579 27.826C8.52621 28.4637 8.61864 28.4637 9.25906 27.826C9.82645 27.2618 9.85327 27.0323 9.41504 26.5063C9.12289 26.1564 8.74367 25.8698 8.57243 25.8698C8.40118 25.8698 8.02196 26.1564 7.72981 26.5063ZM15.1574 26.5063C14.7192 27.0323 14.746 27.2618 15.3134 27.826C15.9538 28.4637 16.0462 28.4637 16.6866 27.826C17.254 27.2618 17.2808 27.0323 16.8426 26.5063C16.5505 26.1564 16.1712 25.8698 16 25.8698C15.8288 25.8698 15.4495 26.1564 15.1574 26.5063ZM22.585 26.5063C22.1467 27.0323 22.1736 27.2618 22.7409 27.826C23.3814 28.4637 23.4738 28.4637 24.1142 27.826C24.6816 27.2618 24.7084 27.0323 24.2702 26.5063C23.978 26.1564 23.5988 25.8698 23.4276 25.8698C23.2563 25.8698 22.8771 26.1564 22.585 26.5063ZM26.2987 26.5063C25.8605 27.0323 25.8873 27.2618 26.4547 27.826C27.0951 28.4637 27.1876 28.4637 27.828 27.826C28.3954 27.2618 28.4222 27.0323 27.984 26.5063C27.6918 26.1564 27.3126 25.8698 27.1414 25.8698C26.9701 25.8698 26.5909 26.1564 26.2987 26.5063ZM30.0125 26.5063C29.5743 27.0323 29.6011 27.2618 30.1685 27.826C30.8089 28.4637 30.9014 28.4637 31.5418 27.826C32.1092 27.2618 32.136 27.0323 31.6978 26.5063C31.4056 26.1564 31.0264 25.8698 30.8551 25.8698C30.6839 25.8698 30.3047 26.1564 30.0125 26.5063ZM0.302237 30.2019C-0.13599 30.728 -0.109168 30.9575 0.458216 31.5217C1.09864 32.1594 1.19107 32.1594 1.83149 31.5217C2.39888 30.9575 2.4257 30.728 1.98747 30.2019C1.69532 29.8521 1.3161 29.5655 1.14485 29.5655C0.973607 29.5655 0.594388 29.8521 0.302237 30.2019ZM4.01602 30.2019C3.5778 30.728 3.60462 30.9575 4.172 31.5217C4.81242 32.1594 4.90486 32.1594 5.54528 31.5217C6.11266 30.9575 6.13948 30.728 5.70126 30.2019C5.40911 29.8521 5.02989 29.5655 4.85864 29.5655C4.68739 29.5655 4.30817 29.8521 4.01602 30.2019ZM7.72981 30.2019C7.29158 30.728 7.3184 30.9575 7.88579 31.5217C8.52621 32.1594 8.61864 32.1594 9.25906 31.5217C9.82645 30.9575 9.85327 30.728 9.41504 30.2019C9.12289 29.8521 8.74367 29.5655 8.57243 29.5655C8.40118 29.5655 8.02196 29.8521 7.72981 30.2019ZM11.4436 30.2019C11.0054 30.728 11.0322 30.9575 11.5996 31.5217C12.24 32.1594 12.3324 32.1594 12.9729 31.5217C13.5402 30.9575 13.5671 30.728 13.1288 30.2019C12.8367 29.8521 12.4575 29.5655 12.2862 29.5655C12.115 29.5655 11.7357 29.8521 11.4436 30.2019ZM15.1574 30.2019C14.7192 30.728 14.746 30.9575 15.3134 31.5217C15.9538 32.1594 16.0462 32.1594 16.6866 31.5217C17.254 30.9575 17.2808 30.728 16.8426 30.2019C16.5505 29.8521 16.1712 29.5655 16 29.5655C15.8288 29.5655 15.4495 29.8521 15.1574 30.2019ZM18.8712 30.2019C18.4329 30.728 18.4598 30.9575 19.0271 31.5217C19.6676 32.1594 19.76 32.1594 20.4004 31.5217C20.9678 30.9575 20.9946 30.728 20.5564 30.2019C20.2643 29.8521 19.885 29.5655 19.7138 29.5655C19.5425 29.5655 19.1633 29.8521 18.8712 30.2019ZM22.585 30.2019C22.1467 30.728 22.1736 30.9575 22.7409 31.5217C23.3814 32.1594 23.4738 32.1594 24.1142 31.5217C24.6816 30.9575 24.7084 30.728 24.2702 30.2019C23.978 29.8521 23.5988 29.5655 23.4276 29.5655C23.2563 29.5655 22.8771 29.8521 22.585 30.2019ZM26.2987 30.2019C25.8605 30.728 25.8873 30.9575 26.4547 31.5217C27.0951 32.1594 27.1876 32.1594 27.828 31.5217C28.3954 30.9575 28.4222 30.728 27.984 30.2019C27.6918 29.8521 27.3126 29.5655 27.1414 29.5655C26.9701 29.5655 26.5909 29.8521 26.2987 30.2019ZM30.0125 30.2019C29.5743 30.728 29.6011 30.9575 30.1685 31.5217C30.8089 32.1594 30.9014 32.1594 31.5418 31.5217C32.1092 30.9575 32.136 30.728 31.6978 30.2019C31.4056 29.8521 31.0264 29.5655 30.8551 29.5655C30.6839 29.5655 30.3047 29.8521 30.0125 30.2019Z" fill="#153A59"/>
</svg>
