<svg width="32" height="32" viewBox="0 0 32 32" fill="none" xmlns="http://www.w3.org/2000/svg">
<path fill-rule="evenodd" clip-rule="evenodd" d="M12.302 0.51705C11.9463 0.944368 11.9681 1.13084 12.4286 1.58918C12.9483 2.10723 13.0233 2.10723 13.5431 1.58918C14.0036 1.13084 14.0254 0.944368 13.6697 0.51705C13.4326 0.232839 13.1248 0 12.9858 0C12.8468 0 12.5391 0.232839 12.302 0.51705ZM15.3161 0.51705C14.9604 0.944368 14.9822 1.13084 15.4427 1.58918C15.9625 2.10723 16.0375 2.10723 16.5573 1.58918C17.0178 1.13084 17.0396 0.944368 16.6839 0.51705C16.4468 0.232839 16.139 0 16 0C15.861 0 15.5532 0.232839 15.3161 0.51705ZM18.3303 0.51705C17.9746 0.944368 17.9964 1.13084 18.4569 1.58918C18.9767 2.10723 19.0517 2.10723 19.5715 1.58918C20.0319 1.13084 20.0537 0.944368 19.698 0.51705C19.4609 0.232839 19.1532 0 19.0142 0C18.8752 0 18.5674 0.232839 18.3303 0.51705ZM9.28779 3.51928C8.93212 3.9466 8.95389 4.13307 9.41439 4.59141C9.93416 5.10946 10.0092 5.10946 10.529 4.59141C10.9895 4.13307 11.0112 3.9466 10.6556 3.51928C10.1133 2.8688 9.83001 2.8688 9.28779 3.51928ZM12.302 3.51928C11.9463 3.9466 11.9681 4.13307 12.4286 4.59141C12.9483 5.10946 13.0233 5.10946 13.5431 4.59141C14.0036 4.13307 14.0254 3.9466 13.6697 3.51928C13.4326 3.23507 13.1248 3.00223 12.9858 3.00223C12.8468 3.00223 12.5391 3.23507 12.302 3.51928ZM15.3161 3.51928C14.9604 3.9466 14.9822 4.13307 15.4427 4.59141C15.9625 5.10946 16.0375 5.10946 16.5573 4.59141C17.0178 4.13307 17.0396 3.9466 16.6839 3.51928C16.4468 3.23507 16.139 3.00223 16 3.00223C15.861 3.00223 15.5532 3.23507 15.3161 3.51928ZM18.3303 3.51928C17.9746 3.9466 17.9964 4.13307 18.4569 4.59141C18.9767 5.10946 19.0517 5.10946 19.5715 4.59141C20.0319 4.13307 20.0537 3.9466 19.698 3.51928C19.4609 3.23507 19.1532 3.00223 19.0142 3.00223C18.8752 3.00223 18.5674 3.23507 18.3303 3.51928ZM21.3444 3.51928C20.9888 3.9466 21.0105 4.13307 21.471 4.59141C21.9908 5.10946 22.0658 5.10946 22.5856 4.59141C23.0461 4.13307 23.0679 3.9466 22.7122 3.51928C22.17 2.8688 21.8867 2.8688 21.3444 3.51928ZM9.28779 6.52151C8.93212 6.94882 8.95389 7.1353 9.41439 7.59364C9.93416 8.11169 10.0092 8.11169 10.529 7.59364C10.9895 7.1353 11.0112 6.94882 10.6556 6.52151C10.4184 6.2373 10.1107 6.00446 9.97167 6.00446C9.83269 6.00446 9.52491 6.2373 9.28779 6.52151ZM12.302 6.52151C11.9463 6.94882 11.9681 7.1353 12.4286 7.59364C12.9483 8.11169 13.0233 8.11169 13.5431 7.59364C14.0036 7.1353 14.0254 6.94882 13.6697 6.52151C13.4326 6.2373 13.1248 6.00446 12.9858 6.00446C12.8468 6.00446 12.5391 6.2373 12.302 6.52151ZM15.3161 6.52151C14.9604 6.94882 14.9822 7.1353 15.4427 7.59364C15.9625 8.11169 16.0375 8.11169 16.5573 7.59364C17.0178 7.1353 17.0396 6.94882 16.6839 6.52151C16.4468 6.2373 16.139 6.00446 16 6.00446C15.861 6.00446 15.5532 6.2373 15.3161 6.52151ZM18.3303 6.52151C17.9746 6.94882 17.9964 7.1353 18.4569 7.59364C18.9767 8.11169 19.0517 8.11169 19.5715 7.59364C20.0319 7.1353 20.0537 6.94882 19.698 6.52151C19.4609 6.2373 19.1532 6.00446 19.0142 6.00446C18.8752 6.00446 18.5674 6.2373 18.3303 6.52151ZM21.3444 6.52151C20.9888 6.94882 21.0105 7.1353 21.471 7.59364C21.9908 8.11169 22.0658 8.11169 22.5856 7.59364C23.0461 7.1353 23.0679 6.94882 22.7122 6.52151C22.4751 6.2373 22.1673 6.00446 22.0283 6.00446C21.8893 6.00446 21.5816 6.2373 21.3444 6.52151ZM9.28779 9.52373C8.93212 9.95105 8.95389 10.1375 9.41439 10.5959C9.93416 11.1139 10.0092 11.1139 10.529 10.5959C10.9895 10.1375 11.0112 9.95105 10.6556 9.52373C10.4184 9.23952 10.1107 9.00668 9.97167 9.00668C9.83269 9.00668 9.52491 9.23952 9.28779 9.52373ZM12.302 9.52373C11.9463 9.95105 11.9681 10.1375 12.4286 10.5959C12.9483 11.1139 13.0233 11.1139 13.5431 10.5959C14.0036 10.1375 14.0254 9.95105 13.6697 9.52373C13.4326 9.23952 13.1248 9.00668 12.9858 9.00668C12.8468 9.00668 12.5391 9.23952 12.302 9.52373ZM15.3161 9.52373C14.9604 9.95105 14.9822 10.1375 15.4427 10.5959C15.9625 11.1139 16.0375 11.1139 16.5573 10.5959C17.0178 10.1375 17.0396 9.95105 16.6839 9.52373C16.4468 9.23952 16.139 9.00668 16 9.00668C15.861 9.00668 15.5532 9.23952 15.3161 9.52373ZM18.3303 9.52373C17.9746 9.95105 17.9964 10.1375 18.4569 10.5959C18.9767 11.1139 19.0517 11.1139 19.5715 10.5959C20.0319 10.1375 20.0537 9.95105 19.698 9.52373C19.4609 9.23952 19.1532 9.00668 19.0142 9.00668C18.8752 9.00668 18.5674 9.23952 18.3303 9.52373ZM21.3444 9.52373C20.9888 9.95105 21.0105 10.1375 21.471 10.5959C21.9908 11.1139 22.0658 11.1139 22.5856 10.5959C23.0461 10.1375 23.0679 9.95105 22.7122 9.52373C22.4751 9.23952 22.1673 9.00668 22.0283 9.00668C21.8893 9.00668 21.5816 9.23952 21.3444 9.52373ZM12.302 12.526C11.9463 12.9533 11.9681 13.1398 12.4286 13.5981C12.9483 14.1161 13.0233 14.1161 13.5431 13.5981C14.0036 13.1398 14.0254 12.9533 13.6697 12.526C13.4326 12.2418 13.1248 12.0089 12.9858 12.0089C12.8468 12.0089 12.5391 12.2418 12.302 12.526ZM15.3161 12.526C14.9604 12.9533 14.9822 13.1398 15.4427 13.5981C15.9625 14.1161 16.0375 14.1161 16.5573 13.5981C17.0178 13.1398 17.0396 12.9533 16.6839 12.526C16.4468 12.2418 16.139 12.0089 16 12.0089C15.861 12.0089 15.5532 12.2418 15.3161 12.526ZM18.3303 12.526C17.9746 12.9533 17.9964 13.1398 18.4569 13.5981C18.9767 14.1161 19.0517 14.1161 19.5715 13.5981C20.0319 13.1398 20.0537 12.9533 19.698 12.526C19.4609 12.2418 19.1532 12.0089 19.0142 12.0089C18.8752 12.0089 18.5674 12.2418 18.3303 12.526ZM0.2453 15.5282C-0.110371 15.9555 -0.0886024 16.142 0.371895 16.6003C0.891671 17.1184 0.96669 17.1184 1.48647 16.6003C1.94696 16.142 1.96873 15.9555 1.61306 15.5282C1.37595 15.244 1.06817 15.0111 0.92918 15.0111C0.790194 15.0111 0.482414 15.244 0.2453 15.5282ZM3.25946 15.5282C2.90379 15.9555 2.92556 16.142 3.38606 16.6003C3.90583 17.1184 3.98085 17.1184 4.50063 16.6003C4.96113 16.142 4.9829 15.9555 4.62722 15.5282C4.39011 15.244 4.08233 15.0111 3.94334 15.0111C3.80436 15.0111 3.49658 15.244 3.25946 15.5282ZM15.3161 15.5282C14.9604 15.9555 14.9822 16.142 15.4427 16.6003C15.9625 17.1184 16.0375 17.1184 16.5573 16.6003C17.0178 16.142 17.0396 15.9555 16.6839 15.5282C16.4468 15.244 16.139 15.0111 16 15.0111C15.861 15.0111 15.5532 15.244 15.3161 15.5282ZM27.3728 15.5282C27.0171 15.9555 27.0389 16.142 27.4994 16.6003C28.0191 17.1184 28.0942 17.1184 28.6139 16.6003C29.0744 16.142 29.0962 15.9555 28.7405 15.5282C28.5034 15.244 28.1956 15.0111 28.0567 15.0111C27.9177 15.0111 27.6099 15.244 27.3728 15.5282ZM30.3869 15.5282C30.0313 15.9555 30.053 16.142 30.5135 16.6003C31.0333 17.1184 31.1083 17.1184 31.6281 16.6003C32.0886 16.142 32.1104 15.9555 31.7547 15.5282C31.5176 15.244 31.2098 15.0111 31.0708 15.0111C30.9318 15.0111 30.6241 15.244 30.3869 15.5282ZM3.25946 18.5304C2.90379 18.9577 2.92556 19.1442 3.38606 19.6025C3.90583 20.1206 3.98085 20.1206 4.50063 19.6025C4.96113 19.1442 4.9829 18.9577 4.62722 18.5304C4.39011 18.2462 4.08233 18.0134 3.94334 18.0134C3.80436 18.0134 3.49658 18.2462 3.25946 18.5304ZM9.28779 18.5304C8.93212 18.9577 8.95389 19.1442 9.41439 19.6025C9.93416 20.1206 10.0092 20.1206 10.529 19.6025C10.9895 19.1442 11.0112 18.9577 10.6556 18.5304C10.4184 18.2462 10.1107 18.0134 9.97167 18.0134C9.83269 18.0134 9.52491 18.2462 9.28779 18.5304ZM15.3161 18.5304C14.9604 18.9577 14.9822 19.1442 15.4427 19.6025C15.9625 20.1206 16.0375 20.1206 16.5573 19.6025C17.0178 19.1442 17.0396 18.9577 16.6839 18.5304C16.4468 18.2462 16.139 18.0134 16 18.0134C15.861 18.0134 15.5532 18.2462 15.3161 18.5304ZM21.3444 18.5304C20.9888 18.9577 21.0105 19.1442 21.471 19.6025C21.9908 20.1206 22.0658 20.1206 22.5856 19.6025C23.0461 19.1442 23.0679 18.9577 22.7122 18.5304C22.4751 18.2462 22.1673 18.0134 22.0283 18.0134C21.8893 18.0134 21.5816 18.2462 21.3444 18.5304ZM27.3728 18.5304C27.0171 18.9577 27.0389 19.1442 27.4994 19.6025C28.0191 20.1206 28.0942 20.1206 28.6139 19.6025C29.0744 19.1442 29.0962 18.9577 28.7405 18.5304C28.5034 18.2462 28.1956 18.0134 28.0567 18.0134C27.9177 18.0134 27.6099 18.2462 27.3728 18.5304ZM3.25946 21.5326C2.90379 21.96 2.92556 22.1464 3.38606 22.6048C3.90583 23.1228 3.98085 23.1228 4.50063 22.6048C4.96113 22.1464 4.9829 21.96 4.62722 21.5326C4.39011 21.2484 4.08233 21.0156 3.94334 21.0156C3.80436 21.0156 3.49658 21.2484 3.25946 21.5326ZM12.302 21.5326C11.9463 21.96 11.9681 22.1464 12.4286 22.6048C12.9483 23.1228 13.0233 23.1228 13.5431 22.6048C14.0036 22.1464 14.0254 21.96 13.6697 21.5326C13.4326 21.2484 13.1248 21.0156 12.9858 21.0156C12.8468 21.0156 12.5391 21.2484 12.302 21.5326ZM15.3161 21.5326C14.9604 21.96 14.9822 22.1464 15.4427 22.6048C15.9625 23.1228 16.0375 23.1228 16.5573 22.6048C17.0178 22.1464 17.0396 21.96 16.6839 21.5326C16.4468 21.2484 16.139 21.0156 16 21.0156C15.861 21.0156 15.5532 21.2484 15.3161 21.5326ZM18.3303 21.5326C17.9746 21.96 17.9964 22.1464 18.4569 22.6048C18.9767 23.1228 19.0517 23.1228 19.5715 22.6048C20.0319 22.1464 20.0537 21.96 19.698 21.5326C19.4609 21.2484 19.1532 21.0156 19.0142 21.0156C18.8752 21.0156 18.5674 21.2484 18.3303 21.5326ZM27.3728 21.5326C27.0171 21.96 27.0389 22.1464 27.4994 22.6048C28.0191 23.1228 28.0942 23.1228 28.6139 22.6048C29.0744 22.1464 29.0962 21.96 28.7405 21.5326C28.5034 21.2484 28.1956 21.0156 28.0567 21.0156C27.9177 21.0156 27.6099 21.2484 27.3728 21.5326ZM3.25946 24.5349C2.90379 24.9622 2.92556 25.1487 3.38606 25.607C3.90583 26.1251 3.98085 26.1251 4.50063 25.607C4.96113 25.1487 4.9829 24.9622 4.62722 24.5349C4.39011 24.2507 4.08233 24.0178 3.94334 24.0178C3.80436 24.0178 3.49658 24.2507 3.25946 24.5349ZM15.3161 24.5349C14.9604 24.9622 14.9822 25.1487 15.4427 25.607C15.9625 26.1251 16.0375 26.1251 16.5573 25.607C17.0178 25.1487 17.0396 24.9622 16.6839 24.5349C16.4468 24.2507 16.139 24.0178 16 24.0178C15.861 24.0178 15.5532 24.2507 15.3161 24.5349ZM27.3728 24.5349C27.0171 24.9622 27.0389 25.1487 27.4994 25.607C28.0191 26.1251 28.0942 26.1251 28.6139 25.607C29.0744 25.1487 29.0962 24.9622 28.7405 24.5349C28.5034 24.2507 28.1956 24.0178 28.0567 24.0178C27.9177 24.0178 27.6099 24.2507 27.3728 24.5349ZM3.25946 27.5371C2.90379 27.9644 2.92556 28.1509 3.38606 28.6092C3.90583 29.1273 3.98085 29.1273 4.50063 28.6092C4.96113 28.1509 4.9829 27.9644 4.62722 27.5371C4.39011 27.2529 4.08233 27.0201 3.94334 27.0201C3.80436 27.0201 3.49658 27.2529 3.25946 27.5371ZM27.3728 27.5371C27.0171 27.9644 27.0389 28.1509 27.4994 28.6092C28.0191 29.1273 28.0942 29.1273 28.6139 28.6092C29.0744 28.1509 29.0962 27.9644 28.7405 27.5371C28.5034 27.2529 28.1956 27.0201 28.0567 27.0201C27.9177 27.0201 27.6099 27.2529 27.3728 27.5371ZM3.25946 30.5393C2.90379 30.9667 2.92556 31.1531 3.38606 31.6115C3.90583 32.1295 3.98085 32.1295 4.50063 31.6115C4.96113 31.1531 4.9829 30.9667 4.62722 30.5393C4.39011 30.2551 4.08233 30.0223 3.94334 30.0223C3.80436 30.0223 3.49658 30.2551 3.25946 30.5393ZM6.27363 30.5393C5.91796 30.9667 5.93973 31.1531 6.40022 31.6115C6.92 32.1295 6.99502 32.1295 7.51479 31.6115C7.97529 31.1531 7.99706 30.9667 7.64139 30.5393C7.40427 30.2551 7.0965 30.0223 6.95751 30.0223C6.81852 30.0223 6.51074 30.2551 6.27363 30.5393ZM9.28779 30.5393C8.93212 30.9667 8.95389 31.1531 9.41439 31.6115C9.93416 32.1295 10.0092 32.1295 10.529 31.6115C10.9895 31.1531 11.0112 30.9667 10.6556 30.5393C10.4184 30.2551 10.1107 30.0223 9.97167 30.0223C9.83269 30.0223 9.52491 30.2551 9.28779 30.5393ZM12.302 30.5393C11.9463 30.9667 11.9681 31.1531 12.4286 31.6115C12.9483 32.1295 13.0233 32.1295 13.5431 31.6115C14.0036 31.1531 14.0254 30.9667 13.6697 30.5393C13.4326 30.2551 13.1248 30.0223 12.9858 30.0223C12.8468 30.0223 12.5391 30.2551 12.302 30.5393ZM15.3161 30.5393C14.9604 30.9667 14.9822 31.1531 15.4427 31.6115C15.9625 32.1295 16.0375 32.1295 16.5573 31.6115C17.0178 31.1531 17.0396 30.9667 16.6839 30.5393C16.4468 30.2551 16.139 30.0223 16 30.0223C15.861 30.0223 15.5532 30.2551 15.3161 30.5393ZM18.3303 30.5393C17.9746 30.9667 17.9964 31.1531 18.4569 31.6115C18.9767 32.1295 19.0517 32.1295 19.5715 31.6115C20.0319 31.1531 20.0537 30.9667 19.698 30.5393C19.4609 30.2551 19.1532 30.0223 19.0142 30.0223C18.8752 30.0223 18.5674 30.2551 18.3303 30.5393ZM21.3444 30.5393C20.9888 30.9667 21.0105 31.1531 21.471 31.6115C21.9908 32.1295 22.0658 32.1295 22.5856 31.6115C23.0461 31.1531 23.0679 30.9667 22.7122 30.5393C22.4751 30.2551 22.1673 30.0223 22.0283 30.0223C21.8893 30.0223 21.5816 30.2551 21.3444 30.5393ZM24.3586 30.5393C24.0029 30.9667 24.0247 31.1531 24.4852 31.6115C25.005 32.1295 25.08 32.1295 25.5998 31.6115C26.0603 31.1531 26.082 30.9667 25.7264 30.5393C25.4893 30.2551 25.1815 30.0223 25.0425 30.0223C24.9035 30.0223 24.5957 30.2551 24.3586 30.5393ZM27.3728 30.5393C27.0171 30.9667 27.0389 31.1531 27.4994 31.6115C28.0191 32.1295 28.0942 32.1295 28.6139 31.6115C29.0744 31.1531 29.0962 30.9667 28.7405 30.5393C28.5034 30.2551 28.1956 30.0223 28.0567 30.0223C27.9177 30.0223 27.6099 30.2551 27.3728 30.5393Z" fill="#153A59"/>
</svg>
