<svg viewBox="0 0 16 16" fill="none" xmlns="http://www.w3.org/2000/svg">
<path d="M14 8.00003L9.44998 3.76357C9.36023 3.68001 9.25368 3.61372 9.13642 3.5685C9.01916 3.52328 8.89348 3.5 8.76655 3.5C8.63963 3.5 8.51395 3.52328 8.39669 3.5685C8.27943 3.61372 8.17288 3.68001 8.08313 3.76357C7.99338 3.84714 7.92219 3.94634 7.87362 4.05552C7.82505 4.1647 7.80005 4.28172 7.80005 4.3999C7.80005 4.51807 7.82505 4.63509 7.87362 4.74427C7.92219 4.85345 7.99338 4.95266 8.08313 5.03622L10.2997 7.1L2.96665 7.1C2.71028 7.1 2.46441 7.19482 2.28312 7.36361C2.10184 7.5324 2 7.76132 2 8.00003C2 8.23873 2.10184 8.46766 2.28312 8.63645C2.46441 8.80524 2.71028 8.90006 2.96665 8.90006L10.2997 8.90006L8.08313 10.9638C7.99305 11.0472 7.92157 11.1464 7.87279 11.2556C7.82401 11.3648 7.7989 11.4819 7.7989 11.6002C7.7989 11.7184 7.82401 11.8355 7.87279 11.9447C7.92157 12.0539 7.99305 12.1531 8.08313 12.2365C8.26441 12.4052 8.51023 12.5 8.76655 12.5C9.02287 12.5 9.2687 12.4052 9.44997 12.2365L14 8.00003Z" fill="currentColor"/>
</svg>
