<svg viewBox="0 0 16 16" fill="none" xmlns="http://www.w3.org/2000/svg">
<path d="M13.7592 5.35747C13.9155 5.2064 14.0019 5.00406 14 4.79404C13.998 4.58402 13.9078 4.38312 13.7488 4.23461C13.5897 4.0861 13.3746 4.00186 13.1497 4.00003C12.9248 3.99821 12.7081 4.07894 12.5463 4.22485L6.28442 10.0722L3.45371 7.42886C3.29193 7.28295 3.07525 7.20221 2.85034 7.20403C2.62543 7.20586 2.41028 7.2901 2.25124 7.43861C2.0922 7.58713 2.00199 7.78803 2.00003 7.99805C1.99808 8.20807 2.08454 8.4104 2.24079 8.56147L5.67196 11.7655C5.83282 11.9156 6.05096 12 6.27841 12C6.50587 12 6.72401 11.9156 6.88487 11.7655L13.7472 5.35747H13.7592Z" fill="currentColor"/>
</svg>
