<svg width="16" height="16" viewBox="0 0 16 16" fill="none" xmlns="http://www.w3.org/2000/svg">
<path d="M4.66699 6.44499C4.66699 5.97344 4.85432 5.5212 5.18776 5.18776C5.5212 4.85432 5.97344 4.66699 6.44499 4.66699H12.2223C12.4558 4.66699 12.687 4.71298 12.9027 4.80233C13.1185 4.89169 13.3145 5.02265 13.4796 5.18776C13.6447 5.35286 13.7756 5.54886 13.865 5.76458C13.9543 5.9803 14.0003 6.2115 14.0003 6.44499V12.2223C14.0003 12.4558 13.9543 12.687 13.865 12.9027C13.7756 13.1185 13.6447 13.3145 13.4796 13.4796C13.3145 13.6447 13.1185 13.7756 12.9027 13.865C12.687 13.9543 12.4558 14.0003 12.2223 14.0003H6.44499C6.2115 14.0003 5.9803 13.9543 5.76458 13.865C5.54886 13.7756 5.35286 13.6447 5.18776 13.4796C5.02265 13.3145 4.89169 13.1185 4.80233 12.9027C4.71298 12.687 4.66699 12.4558 4.66699 12.2223V6.44499Z" stroke="currentColor" stroke-width="1.5" stroke-linecap="round" stroke-linejoin="round"/>
<path d="M2.67467 11.158C2.47 11.0417 2.29977 10.8733 2.18127 10.6699C2.06277 10.4665 2.00023 10.2354 2 10V3.33333C2 2.6 2.6 2 3.33333 2H10C10.5 2 10.772 2.25667 11 2.66667" stroke="currentColor" stroke-width="1.5" stroke-linecap="round" stroke-linejoin="round"/>
</svg>
