<svg viewBox="0 0 16 16" fill="none" xmlns="http://www.w3.org/2000/svg">
<path d="M9.42871 1.57129V4.42843C9.42871 4.61787 9.50397 4.79955 9.63792 4.93351C9.77188 5.06746 9.95356 5.14272 10.143 5.14272H13.0001" stroke="#153A59" stroke-width="1.5" stroke-linecap="round" stroke-linejoin="round"/>
<path d="M11.5714 14.4284H4.42857C4.04969 14.4284 3.68633 14.2779 3.41842 14.01C3.15051 13.7421 3 13.3787 3 12.9999V2.99986C3 2.62098 3.15051 2.25762 3.41842 1.98971C3.68633 1.7218 4.04969 1.57129 4.42857 1.57129H9.42857L13 5.14272V12.9999C13 13.3787 12.8495 13.7421 12.5816 14.01C12.3137 14.2779 11.9503 14.4284 11.5714 14.4284Z" stroke="#153A59" stroke-width="1.5" stroke-linecap="round" stroke-linejoin="round"/>
</svg>
