<svg width="52" height="52" viewBox="0 0 52 52" fill="none" xmlns="http://www.w3.org/2000/svg">
<path d="M12.5706 41.6464C13.3179 41.6465 13.924 42.2524 13.924 42.9998C13.924 43.7472 13.3179 44.353 12.5706 44.3532H12.5188C12.4934 44.3532 12.468 44.3526 12.4426 44.3521C11.6954 44.3361 11.1018 43.7175 11.1178 42.9702C11.1339 42.2229 11.7535 41.6304 12.5008 41.6464H12.5706ZM16.2829 41.6464C17.0301 41.6466 17.6362 42.2525 17.6362 42.9998C17.6362 43.7471 17.0301 44.3529 16.2829 44.3532H16.1792C15.4318 44.3531 14.8259 43.7472 14.8259 42.9998C14.8259 42.2524 15.4318 41.6465 16.1792 41.6464H16.2829ZM19.9941 41.6464C20.7415 41.6464 21.3474 42.2523 21.3474 42.9998C21.3474 43.7472 20.7415 44.3532 19.9941 44.3532H19.8915C19.1441 44.3532 18.5381 43.7472 18.5381 42.9998C18.5381 42.2523 19.1441 41.6464 19.8915 41.6464H19.9941ZM23.7063 41.6464C24.4538 41.6464 25.0597 42.2523 25.0597 42.9998C25.0597 43.7472 24.4538 44.3532 23.7063 44.3532H23.6038C22.8563 44.3532 22.2504 43.7472 22.2504 42.9998C22.2504 42.2523 22.8563 41.6464 23.6038 41.6464H23.7063ZM9 40.8344V40.7815C9.00013 40.0342 9.60601 39.4281 10.3534 39.4281C11.1007 39.4281 11.7066 40.0342 11.7068 40.7815V40.8524C11.7228 41.5996 11.1302 42.2193 10.383 42.2353C9.6357 42.2514 9.01711 41.6578 9.00106 40.9105C9.00052 40.8852 9 40.8598 9 40.8344ZM9 37.0978V36.9921C9.00013 36.2447 9.60601 35.6387 10.3534 35.6387C11.1007 35.6387 11.7066 36.2447 11.7068 36.9921V37.0978C11.7066 37.8451 11.1007 38.4512 10.3534 38.4512C9.60601 38.4512 9.00013 37.8451 9 37.0978ZM9 33.3083V33.2026C9.00013 32.4553 9.606 31.8492 10.3534 31.8492C11.1007 31.8492 11.7066 32.4553 11.7068 33.2026V33.3083C11.7066 34.0557 11.1007 34.6617 10.3534 34.6617C9.60601 34.6617 9.00013 34.0557 9 33.3083ZM9 29.5189V29.4132C9.00013 28.6658 9.606 28.0598 10.3534 28.0598C11.1007 28.0598 11.7066 28.6658 11.7068 29.4132V29.5189C11.7066 30.2662 11.1007 30.8723 10.3534 30.8723C9.60601 30.8723 9.00013 30.2662 9 29.5189ZM39.3156 29.5189V29.4132C39.3157 28.6658 39.9216 28.0598 40.669 28.0598C41.4164 28.0598 42.0222 28.6658 42.0224 29.4132V29.5189C42.0222 30.2662 41.4164 30.8723 40.669 30.8723C39.9216 30.8723 39.3157 30.2662 39.3156 29.5189ZM9 25.7294V25.6237C9.00013 24.8764 9.60601 24.2703 10.3534 24.2703C11.1007 24.2703 11.7066 24.8764 11.7068 25.6237V25.7294C11.7066 26.4768 11.1007 27.0828 10.3534 27.0828C9.60601 27.0828 9.00013 26.4768 9 25.7294ZM39.3156 25.7294V25.6237C39.3157 24.8764 39.9216 24.2703 40.669 24.2703C41.4164 24.2703 42.0222 24.8764 42.0224 25.6237V25.7294C42.0222 26.4768 41.4164 27.0828 40.669 27.0828C39.9216 27.0828 39.3157 26.4768 39.3156 25.7294ZM9 21.94V21.8343C9.00013 21.0869 9.60601 20.4809 10.3534 20.4809C11.1007 20.4809 11.7066 21.0869 11.7068 21.8343V21.94C11.7066 22.6873 11.1007 23.2934 10.3534 23.2934C9.60601 23.2934 9.00013 22.6873 9 21.94ZM39.3156 21.94V21.8343C39.3157 21.0869 39.9216 20.4809 40.669 20.4809C41.4164 20.4809 42.0222 21.0869 42.0224 21.8343V21.94C42.0222 22.6873 41.4164 23.2934 40.669 23.2934C39.9216 23.2934 39.3157 22.6873 39.3156 21.94ZM9 18.1505V18.0448C9.00013 17.2975 9.60601 16.6914 10.3534 16.6914C11.1007 16.6914 11.7066 17.2975 11.7068 18.0448V18.1505C11.7066 18.8979 11.1007 19.5039 10.3534 19.5039C9.60601 19.5039 9.00013 18.8979 9 18.1505ZM39.3156 18.1505V18.0448C39.3157 17.2975 39.9216 16.6914 40.669 16.6914C41.4164 16.6914 42.0222 17.2975 42.0224 18.0448V18.1505C42.0222 18.8979 41.4164 19.5039 40.669 19.5039C39.9216 19.5039 39.3157 18.8979 39.3156 18.1505ZM9 14.3611V14.2554C9.00013 13.508 9.60601 12.902 10.3534 12.902C11.1007 12.902 11.7066 13.508 11.7068 14.2554V14.3611C11.7066 15.1084 11.1007 15.7145 10.3534 15.7145C9.60601 15.7145 9.00013 15.1084 9 14.3611ZM39.3156 14.3611V14.2554C39.3157 13.508 39.9216 12.902 40.669 12.902C41.4164 12.902 42.0222 13.508 42.0224 14.2554V14.3611C42.0222 15.1084 41.4164 15.7145 40.669 15.7145C39.9216 15.7145 39.3157 15.1084 39.3156 14.3611ZM9 10.5716V10.5188C9 10.4934 9.00052 10.468 9.00106 10.4426C9.01711 9.69537 9.6357 9.10177 10.383 9.11782C11.1302 9.13388 11.7228 9.75353 11.7068 10.5008V10.5716C11.7066 11.319 11.1007 11.925 10.3534 11.925C9.60601 11.925 9.00013 11.319 9 10.5716ZM39.3156 10.5716V10.5008C39.2996 9.75354 39.8921 9.13388 40.6394 9.11782C41.3867 9.10177 42.0053 9.69537 42.0213 10.4426C42.0218 10.468 42.0224 10.4934 42.0224 10.5188V10.5716C42.0222 11.319 41.4164 11.925 40.669 11.925C39.9216 11.925 39.3157 11.319 39.3156 10.5716ZM12.5706 7C13.3179 7.00014 13.924 7.60601 13.924 8.35338C13.924 9.10074 13.3179 9.70661 12.5706 9.70675H12.5008C11.7535 9.7228 11.1339 9.13024 11.1178 8.38298C11.1018 7.6357 11.6954 7.01711 12.4426 7.00106C12.468 7.00052 12.4934 7 12.5188 7H12.5706ZM16.2829 7C17.0301 7.00022 17.6362 7.60606 17.6362 8.35338C17.6362 9.10069 17.0301 9.70653 16.2829 9.70675H16.1792C15.4318 9.7067 14.8259 9.10079 14.8259 8.35338C14.8259 7.60596 15.4318 7.00005 16.1792 7H16.2829ZM19.9941 7C20.7415 7 21.3474 7.60593 21.3474 8.35338C21.3474 9.10082 20.7415 9.70675 19.9941 9.70675H19.8915C19.1441 9.70675 18.5381 9.10082 18.5381 8.35338C18.5381 7.60593 19.1441 7 19.8915 7H19.9941ZM23.7063 7C24.4538 7 25.0597 7.60593 25.0597 8.35338C25.0597 9.10082 24.4538 9.70675 23.7063 9.70675H23.6038C22.8563 9.70675 22.2504 9.10082 22.2504 8.35338C22.2504 7.60593 22.8563 7 23.6038 7H23.7063ZM27.4186 7C28.166 7 28.772 7.60593 28.772 8.35338C28.772 9.10082 28.166 9.70675 27.4186 9.70675H27.316C26.5686 9.70675 25.9627 9.10082 25.9627 8.35338C25.9627 7.60593 26.5686 7 27.316 7H27.4186ZM31.1309 7C31.8783 7 32.4842 7.60593 32.4842 8.35338C32.4842 9.10082 31.8783 9.70675 31.1309 9.70675H31.0283C30.2809 9.70675 29.6749 9.10082 29.6749 8.35338C29.6749 7.60593 30.2809 7 31.0283 7H31.1309ZM34.8431 7C35.5905 7.00005 36.1965 7.60596 36.1965 8.35338C36.1965 9.10079 35.5905 9.7067 34.8431 9.70675H34.7395C33.9922 9.70653 33.3861 9.10069 33.3861 8.35338C33.3861 7.60606 33.9922 7.00022 34.7395 7H34.8431ZM38.5036 7C38.529 7 38.5544 7.00052 38.5797 7.00106C39.327 7.01711 39.9206 7.6357 39.9045 8.38298C39.8885 9.13024 39.2688 9.7228 38.5216 9.70675H38.4518C37.7044 9.70661 37.0984 9.10074 37.0984 8.35338C37.0984 7.60601 37.7044 7.00014 38.4518 7H38.5036Z" fill="url(#paint0_linear_7598_8566)"/>
<path d="M16.9055 15.6611C17.6529 15.6612 18.2589 16.2671 18.2589 17.0145C18.2589 17.7619 17.6529 18.3678 16.9055 18.3679H16.8495C16.102 18.3679 15.4961 17.762 15.4961 17.0145C15.4961 16.2671 16.102 15.6611 16.8495 15.6611H16.9055ZM20.3704 15.6611C21.1176 15.6613 21.7237 16.2672 21.7237 17.0145C21.7237 17.7618 21.1176 18.3677 20.3704 18.3679H20.2583C19.5108 18.3679 18.9049 17.762 18.9049 17.0145C18.9049 16.2671 19.5108 15.6611 20.2583 15.6611H20.3704ZM23.8342 15.6611C24.5816 15.6611 25.1875 16.2671 25.1875 17.0145C25.1875 17.762 24.5816 18.3679 23.8342 18.3679H23.7231C22.9757 18.3679 22.3698 17.762 22.3698 17.0145C22.3698 16.2671 22.9757 15.6611 23.7231 15.6611H23.8342ZM27.299 15.6611C28.0465 15.6611 28.6524 16.2671 28.6524 17.0145C28.6524 17.762 28.0465 18.3679 27.299 18.3679H27.188C26.4405 18.3679 25.8346 17.762 25.8346 17.0145C25.8346 16.2671 26.4405 15.6611 27.188 15.6611H27.299ZM30.7639 15.6611C31.5113 15.6611 32.1172 16.2671 32.1172 17.0145C32.1172 17.762 31.5113 18.3679 30.7639 18.3679H30.6518C29.9045 18.3677 29.2984 17.7618 29.2984 17.0145C29.2984 16.2672 29.9045 15.6613 30.6518 15.6611H30.7639ZM34.1727 15.6611C34.9201 15.6611 35.5261 16.2671 35.5261 17.0145C35.5261 17.762 34.9201 18.3679 34.1727 18.3679H34.1166C33.3693 18.3678 32.7633 17.7619 32.7633 17.0145C32.7633 16.2671 33.3693 15.6612 34.1166 15.6611H34.1727Z" fill="url(#paint1_linear_7598_8566)"/>
<path d="M16.9055 21.0752C17.6529 21.0753 18.2589 21.6812 18.2589 22.4286C18.2589 23.176 17.6529 23.7819 16.9055 23.7819H16.8495C16.102 23.7819 15.4961 23.176 15.4961 22.4286C15.4961 21.6811 16.102 21.0752 16.8495 21.0752H16.9055ZM20.3704 21.0752C21.1176 21.0754 21.7237 21.6812 21.7237 22.4286C21.7237 23.1759 21.1176 23.7817 20.3704 23.7819H20.2583C19.5108 23.7819 18.9049 23.176 18.9049 22.4286C18.9049 21.6811 19.5108 21.0752 20.2583 21.0752H20.3704ZM23.8342 21.0752C24.5816 21.0752 25.1875 21.6811 25.1875 22.4286C25.1875 23.176 24.5816 23.7819 23.8342 23.7819H23.7231C22.9757 23.7819 22.3698 23.176 22.3698 22.4286C22.3698 21.6811 22.9757 21.0752 23.7231 21.0752H23.8342ZM27.299 21.0752C28.0465 21.0752 28.6524 21.6811 28.6524 22.4286C28.6524 23.176 28.0465 23.7819 27.299 23.7819H27.188C26.4405 23.7819 25.8346 23.176 25.8346 22.4286C25.8346 21.6811 26.4405 21.0752 27.188 21.0752H27.299ZM30.7639 21.0752C31.5113 21.0752 32.1172 21.6811 32.1172 22.4286C32.1172 23.176 31.5113 23.7819 30.7639 23.7819H30.6518C29.9045 23.7817 29.2984 23.1759 29.2984 22.4286C29.2984 21.6812 29.9045 21.0754 30.6518 21.0752H30.7639Z" fill="url(#paint2_linear_7598_8566)"/>
<path d="M16.9055 26.4883C17.6529 26.4884 18.2589 27.0943 18.2589 27.8417C18.2589 28.5891 17.6529 29.1949 16.9055 29.195H16.8495C16.102 29.195 15.4961 28.5891 15.4961 27.8417C15.4961 27.0942 16.102 26.4883 16.8495 26.4883H16.9055ZM20.3704 26.4883C21.1176 26.4885 21.7237 27.0943 21.7237 27.8417C21.7237 28.589 21.1176 29.1948 20.3704 29.195H20.2583C19.5108 29.195 18.9049 28.5891 18.9049 27.8417C18.9049 27.0942 19.5108 26.4883 20.2583 26.4883H20.3704ZM23.8342 26.4883C24.5816 26.4883 25.1875 27.0942 25.1875 27.8417C25.1875 28.5891 24.5816 29.195 23.8342 29.195H23.7231C22.9757 29.195 22.3698 28.5891 22.3698 27.8417C22.3698 27.0942 22.9757 26.4883 23.7231 26.4883H23.8342ZM27.299 26.4883C28.0465 26.4883 28.6524 27.0942 28.6524 27.8417C28.6524 28.5891 28.0465 29.195 27.299 29.195H27.188C26.4405 29.195 25.8346 28.5891 25.8346 27.8417C25.8346 27.0942 26.4405 26.4883 27.188 26.4883H27.299Z" fill="url(#paint3_linear_7598_8566)"/>
<path d="M16.9055 31.9023C17.6529 31.9024 18.2589 32.5083 18.2589 33.2557C18.2589 34.0031 17.6529 34.609 16.9055 34.6091H16.8495C16.102 34.6091 15.4961 34.0032 15.4961 33.2557C15.4961 32.5083 16.102 31.9023 16.8495 31.9023H16.9055ZM20.3704 31.9023C21.1176 31.9025 21.7237 32.5084 21.7237 33.2557C21.7237 34.003 21.1176 34.6089 20.3704 34.6091H20.2583C19.5108 34.6091 18.9049 34.0032 18.9049 33.2557C18.9049 32.5083 19.5108 31.9023 20.2583 31.9023H20.3704ZM23.8342 31.9023C24.5816 31.9023 25.1875 32.5083 25.1875 33.2557C25.1875 34.0032 24.5816 34.6091 23.8342 34.6091H23.7231C22.9757 34.6091 22.3698 34.0032 22.3698 33.2557C22.3698 32.5083 22.9757 31.9023 23.7231 31.9023H23.8342Z" fill="url(#paint4_linear_7598_8566)"/>
<path d="M35.8028 31.499C36.0223 30.8337 36.9777 30.8337 37.1972 31.499L38.7012 36.0595C38.7993 36.357 39.0808 36.5585 39.3984 36.5585H44.2656C44.9757 36.5585 45.2709 37.4537 44.6964 37.8649L40.7588 40.6835C40.5019 40.8674 40.3944 41.1933 40.4925 41.4909L41.9965 46.0514C42.216 46.7167 41.443 47.27 40.8685 46.8588L36.9309 44.0403C36.6739 43.8564 36.3261 43.8564 36.0691 44.0403L32.1315 46.8588C31.557 47.27 30.784 46.7167 31.0035 46.0514L32.5075 41.4909C32.6056 41.1933 32.4981 40.8674 32.2412 40.6835L28.3036 37.8649C27.7291 37.4537 28.0243 36.5585 28.7344 36.5585H33.6016C33.9192 36.5585 34.2007 36.357 34.2988 36.0595L35.8028 31.499Z" fill="url(#paint5_linear_7598_8566)"/>
<defs>
<linearGradient id="paint0_linear_7598_8566" x1="25.5112" y1="44.3532" x2="25.5112" y2="7" gradientUnits="userSpaceOnUse">
<stop stop-color="#3A84BA"/>
<stop offset="1" stop-color="#619DC8"/>
</linearGradient>
<linearGradient id="paint1_linear_7598_8566" x1="25.5111" y1="18.3679" x2="25.5111" y2="15.6611" gradientUnits="userSpaceOnUse">
<stop stop-color="#3A84BA"/>
<stop offset="1" stop-color="#619DC8"/>
</linearGradient>
<linearGradient id="paint2_linear_7598_8566" x1="23.8067" y1="23.7819" x2="23.8067" y2="21.0752" gradientUnits="userSpaceOnUse">
<stop stop-color="#3A84BA"/>
<stop offset="1" stop-color="#619DC8"/>
</linearGradient>
<linearGradient id="paint3_linear_7598_8566" x1="22.0742" y1="29.195" x2="22.0742" y2="26.4883" gradientUnits="userSpaceOnUse">
<stop stop-color="#3A84BA"/>
<stop offset="1" stop-color="#619DC8"/>
</linearGradient>
<linearGradient id="paint4_linear_7598_8566" x1="20.3418" y1="34.6091" x2="20.3418" y2="31.9023" gradientUnits="userSpaceOnUse">
<stop stop-color="#3A84BA"/>
<stop offset="1" stop-color="#619DC8"/>
</linearGradient>
<linearGradient id="paint5_linear_7598_8566" x1="36.5" y1="47" x2="36.5" y2="31" gradientUnits="userSpaceOnUse">
<stop stop-color="#3A84BA"/>
<stop offset="1" stop-color="#619DC8"/>
</linearGradient>
</defs>
</svg>
