<svg width="12" height="12" viewBox="0 0 12 12" fill="none" xmlns="http://www.w3.org/2000/svg">
<path d="M10.3194 4.0181C10.4366 3.9048 10.5014 3.75305 10.5 3.59553C10.4985 3.43802 10.4309 3.28734 10.3116 3.17596C10.1923 3.06457 10.0309 3.00139 9.86225 3.00002C9.69357 2.99865 9.53106 3.05921 9.40972 3.16864L4.71331 7.55412L2.59028 5.57164C2.46895 5.46221 2.30644 5.40166 2.13775 5.40303C1.96907 5.4044 1.80771 5.46758 1.68843 5.57896C1.56915 5.69034 1.50149 5.84102 1.50002 5.99854C1.49856 6.15605 1.5634 6.3078 1.68059 6.4211L4.25397 8.82411C4.37461 8.93673 4.53822 9 4.70881 9C4.8794 9 5.04301 8.93673 5.16365 8.82411L10.3104 4.0181H10.3194Z" fill="#153A59"/>
</svg>
