<svg width="144" height="46" viewBox="0 0 144 46" fill="none" xmlns="http://www.w3.org/2000/svg">
<path d="M48.4834 15.4918V14.3969H51.2484V15.7085C51.2484 17.0771 51.8361 17.5675 52.7639 17.5675C53.6918 17.5675 54.2795 17.0771 54.2795 15.6666C54.2795 14.0814 53.6955 13.0701 51.7807 11.348C49.3373 9.1316 48.5388 7.57292 48.5388 5.38697C48.5388 2.37986 50.0544 0.631104 52.897 0.631104C55.7396 0.631104 57.1517 2.37986 57.1517 5.444V6.23474H54.3867V5.23871C54.3867 3.87391 53.8544 3.33788 52.9081 3.33788C51.9618 3.33788 51.448 3.85871 51.448 5.17028C51.448 6.56548 52.0579 7.57672 53.9727 9.29887C56.4198 11.5114 57.1887 13.0435 57.1887 15.4233C57.1887 18.5369 55.6472 20.2894 52.775 20.2894C49.9028 20.2894 48.4834 18.5521 48.4834 15.4918Z" fill="currentColor"/>
<path d="M58.3712 0.893433H62.5446L64.3928 14.5794H64.4446L66.2928 0.893433H70.4662V20.031H67.7012V5.53905H67.6458L65.5203 20.031H63.0732L60.9477 5.53905H60.9107V20.031H58.3564L58.3712 0.893433Z" fill="currentColor"/>
<path d="M72.167 0.893433H75.0909V20.031H72.167V0.893433Z" fill="currentColor"/>
<path d="M76.7656 0.893433H79.6895V17.2976H84.495V20.031H76.7656V0.893433Z" fill="currentColor"/>
<path d="M85.4043 0.893433H93.3813V3.61161H88.3282V8.66781H92.3315V11.4012H88.3282V17.2976H93.3813V20.031H85.4043V0.893433Z" fill="currentColor"/>
<path d="M48.9902 25.9691H56.727V28.7025H51.9216V34.0248H55.6957V36.7582H51.9142V45.0952H48.9902V25.9691Z" fill="currentColor"/>
<path d="M57.418 40.5674V30.5083C57.418 27.4479 58.9853 25.6954 61.8538 25.6954C64.7223 25.6954 66.2896 27.4479 66.2896 30.5083V40.5674C66.2896 43.6316 64.7223 45.3803 61.8538 45.3803C58.9853 45.3803 57.418 43.6316 57.418 40.5674ZM63.3693 40.7613V30.3182C63.3693 28.9496 62.7853 28.4174 61.8538 28.4174C60.9223 28.4174 60.3419 28.9344 60.3419 30.3182V40.7613C60.3419 42.1261 60.9259 42.6622 61.8538 42.6622C62.7816 42.6622 63.3693 42.1261 63.3693 40.7613Z" fill="currentColor"/>
<path d="M67.757 25.9691H72.0893C75.1204 25.9691 76.4216 27.4213 76.4216 30.3714V31.5461C76.4216 33.5154 75.8116 34.7737 74.5068 35.3212V35.3744C75.9854 35.8382 76.4474 37.2752 76.4474 39.4194V42.7686C76.394 43.5572 76.5023 44.3486 76.7654 45.0914H73.7897C73.6307 44.601 73.5235 44.3007 73.5235 42.742V39.2407C73.5235 37.4653 73.0208 36.8913 71.6753 36.8913H70.6661V45.0914H67.7422L67.757 25.9691ZM71.7418 34.1731C72.8323 34.1731 73.4976 33.6789 73.4976 32.1506V30.6718C73.4976 29.307 73.0467 28.7025 72.019 28.7025H70.692V34.1731H71.7418Z" fill="currentColor"/>
<path d="M81.2051 40.5675V39.4764H83.9701V40.7879C83.9701 42.1565 84.5541 42.647 85.4856 42.647C86.4172 42.647 87.0012 42.1565 87.0012 40.7461C87.0012 39.157 86.4171 38.1458 84.5024 36.4236C82.0553 34.2111 81.2605 32.6524 81.2605 30.4665C81.2605 27.4594 82.7724 25.7068 85.6187 25.7068C88.465 25.7068 89.8697 27.4594 89.8697 30.5197V31.3142H87.1084V30.3296C87.1084 28.961 86.5761 28.4288 85.6298 28.4288C84.6835 28.4288 84.1512 28.9458 84.1512 30.2574C84.1512 31.6526 84.7611 32.6638 86.6759 34.386C89.1193 36.6023 89.8919 38.1306 89.8919 40.5104C89.8919 43.6278 88.3504 45.3765 85.4782 45.3765C82.6061 45.3765 81.2051 43.6316 81.2051 40.5675Z" fill="currentColor"/>
<path d="M91.0928 25.9691H99.0661V28.7025H94.0167V33.7625H98.0311V36.4959H94.0167V42.3885H99.0661V45.1218H91.0928V25.9691Z" fill="currentColor"/>
<path d="M100.238 25.9691H104.571C107.602 25.9691 108.903 27.4213 108.903 30.3714V31.5461C108.903 33.5154 108.293 34.7737 106.988 35.3212V35.3744C108.467 35.8382 108.929 37.2752 108.929 39.4194V42.7686C108.875 43.5572 108.984 44.3486 109.247 45.0914H106.271C106.112 44.601 106.005 44.3007 106.005 42.742V39.2407C106.005 37.4653 105.498 36.8913 104.157 36.8913H103.162V45.0914H100.238V25.9691ZM104.223 34.1731C105.314 34.1731 105.979 33.6789 105.979 32.1506V30.6718C105.979 29.307 105.528 28.7025 104.5 28.7025H103.162V34.1731H104.223Z" fill="currentColor"/>
<path d="M109.568 25.9691H112.526L114.44 40.8146H114.492L116.407 25.9691H119.091L116.274 45.1066H112.392L109.568 25.9691Z" fill="currentColor"/>
<path d="M119.984 25.9691H122.908V45.1066H119.984V25.9691Z" fill="currentColor"/>
<path d="M124.398 40.6777V30.4133C124.398 27.4632 125.877 25.7106 128.705 25.7106C131.533 25.7106 133.011 27.4632 133.011 30.4133V32.4358H130.246V30.2232C130.246 28.9648 129.662 28.4478 128.768 28.4478C127.873 28.4478 127.308 28.9648 127.308 30.2232V40.9134C127.308 42.1718 127.892 42.6622 128.768 42.6622C129.644 42.6622 130.246 42.1718 130.246 40.9134V37.9862H133.011V40.6929C133.011 43.6468 131.533 45.3956 128.705 45.3956C125.877 45.3956 124.398 43.6316 124.398 40.6777Z" fill="currentColor"/>
<path d="M134.261 25.9691H142.234V28.7025H137.185V33.7625H141.199V36.4959H137.185V42.3885H142.234V45.1218H134.261V25.9691Z" fill="currentColor"/>
<path d="M25.2763 26.8359C33.9409 26.8359 42.9788 20.2514 42.9788 11.2149C42.9788 7.33719 40.9679 0.885786 30.9282 0.627273C29.409 0.589257 26.1228 0.984628 26.1006 1.11388C28.6586 2.50149 32.6841 8.5043 33.4382 13.1499C30.9282 8.11653 25.0249 0.75653 15.2366 0.627273C5.68852 0.501819 1.6963 4.22744 1.76653 11.4316C1.98463 33.0364 18.8739 44.7911 22.2636 44.9089C25.9047 45.0382 37.5782 36.0017 38.5837 29.805C34.4399 33.0326 30.9319 34.3669 26.9101 34.8383C17.1773 35.9979 13.0926 28.7557 12.9743 28.5124C15.5323 30.5805 21.0105 34.9752 31.4273 29.1587C23.3948 31.8693 11.3442 29.4172 8.7714 19.3086C9.88035 20.3617 11.4772 21.9698 12.7969 22.8631C15.1959 24.5207 18.2455 26.8359 25.2763 26.8359ZM5.96207 23C6.0592 21.3154 6.26294 19.6392 6.57199 17.9818C6.68288 17.4838 6.80856 16.982 6.94164 16.4954C6.60526 16.3357 4.46128 15.545 3.61479 15.2218C4.82724 13.5871 8.38697 12.6709 8.38697 12.6709C9.01389 11.0763 9.84158 9.57323 10.8488 8.20017C11.3479 7.51207 12.8376 5.80512 12.8376 5.80512L14.342 10.6256C13.0011 11.9704 11.7628 13.4193 10.6381 14.9595C11.5841 14.2063 12.5907 13.5373 13.6471 12.9598C15.6173 11.9144 19.0957 10.8385 20.5115 11.059C20.4302 11.2453 18.0792 14.796 16.9813 16.3813C16.7226 16.7615 17.5099 20.4529 17.8463 21.8861C17.887 22.0724 14.0278 20.5517 12.065 19.2934C12.5012 17.0428 14.0352 15.4651 16.4823 13.7582C12.0916 15.5802 8.39827 18.8248 5.96207 23Z" fill="#3A84BA"/>
</svg>
