<svg viewBox="0 0 16 16" fill="none" xmlns="http://www.w3.org/2000/svg">
<path d="M11.6665 14.6663V2.33301C11.6665 2.06779 11.5611 1.81344 11.3736 1.6259C11.1861 1.43836 10.9317 1.33301 10.6665 1.33301H2.6665C2.40129 1.33301 2.14693 1.43836 1.9594 1.6259C1.77186 1.81344 1.6665 2.06779 1.6665 2.33301V13.6663C1.6665 13.9316 1.77186 14.1859 1.9594 14.3734C2.14693 14.561 2.40129 14.6663 2.6665 14.6663H11.6665ZM11.6665 14.6663H13.3332C13.5984 14.6663 13.8527 14.561 14.0403 14.3734C14.2278 14.1859 14.3332 13.9316 14.3332 13.6663V7.99967C14.3332 7.82286 14.2629 7.65329 14.1379 7.52827C14.0129 7.40325 13.8433 7.33301 13.6665 7.33301H12.3332C12.1564 7.33301 11.9868 7.40325 11.8618 7.52827C11.7367 7.65329 11.6665 7.82286 11.6665 7.99967V14.6663Z" stroke="#153A59" stroke-width="1.5" stroke-linejoin="round"/>
<path d="M3.6665 4H6.33317M3.6665 6.33333H7.6665" stroke="#153A59" stroke-width="1.5" stroke-linecap="round" stroke-linejoin="round"/>
</svg>
