<svg viewBox="0 0 16 16" fill="none" xmlns="http://www.w3.org/2000/svg">
<path d="M10.125 8.75H7.625C7.52554 8.75 7.43016 8.71049 7.35984 8.64016C7.28951 8.56984 7.25 8.47446 7.25 8.375V4.875C7.25 4.77554 7.28951 4.68016 7.35984 4.60983C7.43016 4.53951 7.52554 4.5 7.625 4.5C7.72446 4.5 7.81984 4.53951 7.89016 4.60983C7.96049 4.68016 8 4.77554 8 4.875V8H10.125C10.2245 8 10.3198 8.03951 10.3902 8.10984C10.4605 8.18016 10.5 8.27554 10.5 8.375C10.5 8.47446 10.4605 8.56984 10.3902 8.64016C10.3198 8.71049 10.2245 8.75 10.125 8.75ZM8 2C4.686 2 2 4.6865 2 8C2 11.3135 4.686 14 8 14C11.3135 14 14 11.3135 14 8C14 4.6865 11.3135 2 8 2Z" fill="#153A59" fill-opacity="0.24"/>
</svg>
