<svg width="16" height="16" viewBox="0 0 16 16" fill="none" xmlns="http://www.w3.org/2000/svg">
<path d="M8 11C8.17 11 8.3126 10.9424 8.4278 10.8272C8.543 10.712 8.6004 10.5696 8.6 10.4V8C8.6 7.83 8.5424 7.6876 8.4272 7.5728C8.312 7.458 8.1696 7.4004 8 7.4C7.8304 7.3996 7.688 7.4572 7.5728 7.5728C7.4576 7.6884 7.4 7.8308 7.4 8V10.4C7.4 10.57 7.4576 10.7126 7.5728 10.8278C7.688 10.943 7.8304 11.0004 8 11ZM8 6.2C8.17 6.2 8.3126 6.1424 8.4278 6.0272C8.543 5.912 8.6004 5.7696 8.6 5.6C8.5996 5.4304 8.542 5.288 8.4272 5.1728C8.3124 5.0576 8.17 5 8 5C7.83 5 7.6876 5.0576 7.5728 5.1728C7.458 5.288 7.4004 5.4304 7.4 5.6C7.3996 5.7696 7.4572 5.9122 7.5728 6.0278C7.6884 6.1434 7.8308 6.2008 8 6.2ZM8 14C7.17 14 6.39 13.8424 5.66 13.5272C4.93 13.212 4.295 12.7846 3.755 12.245C3.215 11.7054 2.7876 11.0704 2.4728 10.34C2.158 9.6096 2.0004 8.8296 2 8C1.9996 7.1704 2.1572 6.3904 2.4728 5.66C2.7884 4.9296 3.2158 4.2946 3.755 3.755C4.2942 3.2154 4.9292 2.788 5.66 2.4728C6.3908 2.1576 7.1708 2 8 2C8.8292 2 9.6092 2.1576 10.34 2.4728C11.0708 2.788 11.7058 3.2154 12.245 3.755C12.7842 4.2946 13.2118 4.9296 13.5278 5.66C13.8438 6.3904 14.0012 7.1704 14 8C13.9988 8.8296 13.8412 9.6096 13.5272 10.34C13.2132 11.0704 12.7858 11.7054 12.245 12.245C11.7042 12.7846 11.0692 13.2122 10.34 13.5278C9.6108 13.8434 8.8308 14.0008 8 14Z" fill="currentColor" />
</svg>
